<?xml version="1.0" encoding="utf-8"?>
<!-- Generator: Adobe Illustrator 22.1.0, SVG Export Plug-In . SVG Version: 6.00 Build 0)  -->
<svg version="1.1" id="Layer_1" xmlns="http://www.w3.org/2000/svg" xmlns:xlink="http://www.w3.org/1999/xlink" x="0px" y="0px"
	 viewBox="0 0 1100.5 1160.9" style="enable-background:new 0 0 1100.5 1160.9;" xml:space="preserve">
<style type="text/css">
	.st0{opacity:0.6;}
	.st1{fill:#74B4CE;}
	.st2{fill:#FFFFFF;}
	.st3{fill:#115687;}
	.st4{fill:#F3F7FF;}
	.st5{opacity:0.9;}
	.st6{opacity:0.8;}
	.st7{fill:#FAFAFA;}
	.st8{fill:none;}
	.st9{fill:#BED0FC;}
	.st10{opacity:0.7;}
	.st11{opacity:0.43;fill:#DDD6FF;enable-background:new    ;}
	.st12{fill:#320968;}
	.st13{fill:#7324C8;}
	.st14{fill:#DD4586;}
	.st15{fill:#38326D;}
	.st16{fill:#F6A388;}
	.st17{fill:#BE7819;}
	.st18{fill:#55499B;}
	.st19{fill:#452E17;}
	.st20{fill:#FF9F03;}
	.st21{fill:#FFC4C0;}
	.st22{fill:#F39F2C;}
	.st23{fill:#262376;}
	.st24{fill:#191960;}
	.st25{clip-path:url(#SVGID_2_);}
	.st26{fill:#8883E5;}
	.st27{opacity:0.25;}
	.st28{fill:#131354;}
	.st29{fill:#6479AD;}
	.st30{fill:#664624;}
	.st31{fill:#E0856C;}
	.st32{fill:#934747;}
	.st33{clip-path:url(#SVGID_4_);}
	.st34{fill:#EA5C5C;}
	.st35{fill:#D1816B;}
	.st36{fill:#19A9C9;}
	.st37{opacity:0.3;fill:#FFFFFF;enable-background:new    ;}
	.st38{fill:#176899;}
</style>
<g id="Group_10899" transform="translate(670.158 272.008)">
	<g id="Group_10856">
		<g id="Group_10849" class="st0">
			<g id="Group_10848">
				<path id="Path_16875" class="st1" d="M364.9-1.5l-61.5-0.3c-8.3,0-15,7-15,15.6v11.2c0,8.6-6.7,15.6-15,15.6l-120.1-0.6
					c-8.3,0-15-7-15-15.6V13.1c0-8.6-6.7-15.6-15-15.6h-21.7L47.5-2.8C20.8-2.8-1.2,18.9-1.2,45.3l-3.5,777.4
					c0,26.8,21.7,48.7,48.1,48.7l317,1.3c26.8,0,48.7-21.7,48.7-48.1l3.5-777.4C413.3,20.5,391.6-1.2,364.9-1.5z"/>
			</g>
		</g>
		<g id="Group_10855" transform="translate(86.338 697.71)">
			<g id="Group_10854" transform="translate(0 0)">
				<g id="Group_10853">
					<g id="Group_10851">
						<g id="Group_10850">
							<path id="Path_16876" class="st2" d="M235.8,71.4L-0.2,70.2c-2.5,0-4.5-2.9-4.5-5.7l0.3-61.5c0-3.5,1.9-5.7,4.5-5.7
								l236.1,1.3c2.5,0,4.5,2.9,4.5,5.7l-0.3,61.5C240.3,68.9,238.1,71.4,235.8,71.4z"/>
						</g>
					</g>
					<g id="Group_10852" transform="translate(69.771 25.806)">
						<path id="Path_16877" class="st3" d="M-4.7,13.8l1-1.3c1.6,1.4,3.6,2.2,5.7,2.2c3.5,0,4.8-1.3,4.8-3.5
							c0-5.1-10.8-1.9-10.8-8.9c0-2.9,1.9-5.1,6.4-5.1c2,0,4,0.6,5.7,1.6L7.4,0.4c-1.3-1.1-3-1.7-4.8-1.6c-3.5,0-4.8,1.3-4.8,3.5
							c0,5.1,10.8,1.9,10.8,8.6C8.7,13.8,6.8,16,2,16C-0.4,16-2.8,15.2-4.7,13.8z"/>
						<path id="Path_16878" class="st3" d="M12.8-2.5h1.9V16h-1.9V-2.5z"/>
						<path id="Path_16879" class="st3" d="M35.1-2.5V16h-1.3L22.7,1v15h-1.9V-2.5h1.6l11.2,15v-15H35.1z"/>
						<path id="Path_16880" class="st3" d="M53.3,7.1h1.6v7c-1.7,1.6-4,2.4-6.4,2.2c-5.4,0-9.2-3.8-9.2-9.6c0-5.4,3.8-9.6,9.6-9.2
							c2.9,0,5.1,1,6.4,2.9l-1.3,1.3c-1.4-1.5-3.4-2.3-5.4-2.2c-4.2,0-7.6,3.4-7.6,7.7c0,4.2,3.4,7.6,7.6,7.6
							c1.7,0.1,3.4-0.4,4.8-1.3L53.3,7.1z"/>
						<path id="Path_16881" class="st3" d="M66.7,8.3V-2.2h1.9V8.3c0,4.5,1.9,6.4,5.4,6.4s5.4-1.9,5.4-6.4V-2.2H81V8.3
							c0,5.4-2.9,8-7.3,8C69.5,16.3,66.7,13.8,66.7,8.3z"/>
						<path id="Path_16882" class="st3" d="M101.1,4.2c0,3.8-2.9,6.4-7.3,6.1H89V16H87V-2.5h6.7C98.2-2.2,101.1,0.4,101.1,4.2z
							 M99.2,4.2c0-3.2-1.9-4.8-5.4-4.8H89v9.2h4.8C96.9,8.7,99.2,7.1,99.2,4.2z"/>
					</g>
				</g>
			</g>
		</g>
	</g>
	<g id="Group_10858" transform="translate(56.338 229.627)">
		<g id="Group_10857" transform="translate(0 0)">
			
				<rect id="Rectangle_4387" x="28.8" y="-36.1" transform="matrix(4.625096e-03 -1 1 4.625096e-03 31.2236 41.1192)" class="st4" width="15" height="81.9"/>
		</g>
	</g>
	<g id="Group_10861" transform="translate(55.116 266.022)">
		<g id="Group_10860">
			<g id="Group_10859">
				<path id="Path_16883" class="st4" d="M318,53c0.7-0.1,1.3-0.3,1.9-0.6c1.8-0.7,3-2.3,3.2-4.1V5.8c0-1.6,0-3.2-1-4.1
					c-0.8-1.2-2.1-1.9-3.5-1.9h-51c-68.2-0.3-162.5-0.6-266-1.3C0.3-1.5-1-1-1.8,0.1c-1,1.3-1,2.5-1,4.1v38.2c0,1.3-0.3,3.5,0,4.5
					c0.4,1.3,1.3,2.3,2.5,2.9C0.4,50,1,50.1,1.7,50.1h16.2c24.5,0,48.1,0.3,70.4,0.3c44.9,0.3,85.7,0.6,119.5,1s61.5,0.6,80.6,0.6
					c9.6,0,16.9,0.3,22,0.3h5.7C316.7,52.7,317.3,52.9,318,53l-110.2,0c-34.1,0-74.9-0.3-119.5-0.3c-22.3,0-46.2-0.3-70.4-0.3H1.7
					c-0.9,0.1-1.8-0.1-2.5-0.6c-1.6-1-3.2-2.2-3.5-3.8c-0.3-0.8-0.4-1.7-0.3-2.5v-43C-4.5,1.4-4,0.5-3.4-0.3
					c1.3-1.3,3.2-2.5,4.8-2.5c103.9,0.6,197.8,1.3,266,1.3c17.2,0,32.5,0.3,45.9,0.3h5.1c1.7,0.1,3.4,0.9,4.5,2.2
					c1.3,1.3,1.3,3.5,1.3,4.8v4.5c0,5.7,0,11.2-0.3,15.9c0,9.6-0.3,16.9-0.3,22c-0.3,2-1.6,3.7-3.5,4.5
					C319.3,52.8,318.7,52.9,318,53z"/>
			</g>
		</g>
	</g>
	<g id="Group_10863" transform="translate(78.056 287.244)">
		<g id="Group_10862" transform="translate(0 0)">
			
				<rect id="Rectangle_4388" x="63.2" y="-70.3" transform="matrix(4.625096e-03 -1 1 4.625096e-03 65.3152 74.7267)" class="st4" width="14" height="149.7"/>
		</g>
	</g>
	<g id="Group_10865" transform="translate(55.353 366.564)">
		<g id="Group_10864" transform="translate(0 0)">
			
				<rect id="Rectangle_4389" x="28.8" y="-36.1" transform="matrix(4.625096e-03 -1 1 4.625096e-03 31.2236 41.1192)" class="st4" width="15" height="81.9"/>
		</g>
	</g>
	<g id="Group_10868" transform="translate(54.081 402.696)">
		<g id="Group_10867">
			<g id="Group_10866">
				<path id="Path_16884" class="st4" d="M317.1,53.3c0.6,0,1.3-0.1,1.9-0.3c1.8-0.4,3.3-1.7,3.8-3.5c0.5-1.2,0.7-2.5,0.6-3.8V7.7
					c0.1-1.4-0.2-2.9-1-4.1c-0.9-1.3-2.1-2.3-3.5-2.9c-1.3-0.6-3.2-0.3-4.8-0.3h-45.9C200.5,0.1,106.6-0.3,3.3-0.9
					c-2.9,0-5.7,2.2-5.7,5.1v38.2c0,1.6-0.3,3.2,0.3,4.5c0.4,1.3,1.2,2.5,2.2,3.5c1.1,0.8,2.4,1.3,3.8,1.3h14
					c24.2,0,47.8,0.3,70.4,0.3c44.9,0.3,85.4,0.6,119.2,1s61.2,0.6,80.3,0.6c9.6,0,16.9,0.3,22,0.3h5.7
					C316,53.5,316.6,53.3,317.1,53.3l-109.9,0c-33.8,0-74.6-0.3-119.2-0.3c-22.3,0-45.9-0.3-70.4-0.3h-14c-1.7,0.1-3.4-0.4-4.8-1.3
					c-1.3-1.2-2.4-2.6-3.2-4.1c-0.6-1.6-0.3-3.5-0.3-4.8V3.9C-4.1,0-0.9-2.8,3-2.8c103.5,0.6,197.2,1.3,265.1,1.3
					c17.2,0,32.2,0.3,45.9,0.3c1.6,0,3.5-0.3,5.1,0.3c1.7,0.5,3,1.7,3.8,3.2c0.9,1.4,1.3,3.1,1.3,4.8V45c0,1.3,0,3.2-0.6,4.1
					c-1.3,2.2-3.2,3.5-4.1,3.5C317.8,53.6,317.1,53.3,317.1,53.3z"/>
			</g>
		</g>
	</g>
	<g id="Group_10870" transform="translate(54.784 509.382)">
		<g id="Group_10869" transform="translate(0 0)">
			
				<rect id="Rectangle_4390" x="28.8" y="-36.1" transform="matrix(4.607652e-03 -1 1 4.607652e-03 31.2248 41.1184)" class="st4" width="15" height="81.9"/>
		</g>
	</g>
	<g id="Group_10873" transform="translate(53.444 545.743)">
		<g id="Group_10872">
			<g id="Group_10871">
				<path id="Path_16885" class="st4" d="M317.1,53.3c0.6,0,1.3-0.1,1.9-0.3c1.8-0.4,3.3-1.7,3.8-3.5c0.5-1.2,0.7-2.5,0.6-3.8V7.7
					c0.1-1.4-0.2-2.9-1-4.1c-0.9-1.3-2.1-2.3-3.5-2.9c-1.3-0.6-3.2-0.3-4.8-0.3h-45.9C200.5,0.1,106.6-0.3,3.3-0.9
					c-2.9,0-5.7,2.2-5.7,5.1v38.2c0,1.6-0.3,3.2,0.3,4.5c0.4,1.3,1.2,2.5,2.2,3.5c1.1,0.9,2.4,1.3,3.8,1.3h14
					c24.2,0,47.8,0.3,70.4,0.3c44.9,0.3,85.4,0.6,119.2,1s61.2,0.6,80.3,0.6c9.6,0,16.9,0.3,22,0.3h5.7
					C316,53.6,316.6,53.3,317.1,53.3l-109.9,0c-33.8,0-74.6-0.3-119.2-0.3c-22.3,0-45.9-0.3-70.4-0.3h-14c-1.7,0.1-3.4-0.4-4.8-1.3
					c-1.3-1.2-2.4-2.6-3.2-4.1c-0.6-1.6-0.3-3.5-0.3-4.8V3.9C-4.1,0-0.9-2.8,3-2.8c103.5,0.6,197.2,1.3,265.1,1.3
					c17.2,0,32.2,0.3,45.9,0.3c1.6,0,3.5-0.3,5.1,0.3c1.7,0.5,3,1.7,3.8,3.2c0.9,1.4,1.3,3.1,1.3,4.8V45c0,1.6,0,3.2-0.6,4.1
					c-1.3,2.2-3.2,3.5-4.1,3.5C318.7,53,317.9,53.2,317.1,53.3z"/>
			</g>
		</g>
	</g>
	<g id="Group_10875" transform="translate(77.631 423.866)">
		<g id="Group_10874" transform="translate(0 0)">
			
				<rect id="Rectangle_4391" x="63.2" y="-70.3" transform="matrix(4.625096e-03 -1 1 4.625096e-03 65.3152 74.7267)" class="st4" width="14" height="149.7"/>
		</g>
	</g>
	<g id="Group_10894" transform="translate(78.223 568.694)">
		<g id="Group_10877" transform="translate(0 0)">
			<g id="Group_10876">
				
					<ellipse id="Ellipse_3743" transform="matrix(4.747333e-03 -1 1 4.747333e-03 -2.5471 5.9174)" class="st4" cx="1.7" cy="4.2" rx="7" ry="6.4"/>
			</g>
		</g>
		<g id="Group_10879" transform="translate(20.245 0.048)">
			<g id="Group_10878" transform="translate(0 0)">
				
					<ellipse id="Ellipse_3744" transform="matrix(4.747333e-03 -1 1 4.747333e-03 -2.5471 5.9174)" class="st4" cx="1.7" cy="4.2" rx="7" ry="6.4"/>
			</g>
		</g>
		<g id="Group_10881" transform="translate(40.807 0.334)">
			<g id="Group_10880" transform="translate(0 0)">
				
					<ellipse id="Ellipse_3745" transform="matrix(4.747333e-03 -1 1 4.747333e-03 -2.5471 5.9174)" class="st4" cx="1.7" cy="4.2" rx="7" ry="6.4"/>
			</g>
		</g>
		<g id="Group_10883" transform="translate(61.054 0.061)">
			<g id="Group_10882" transform="translate(0 0)">
				
					<ellipse id="Ellipse_3746" transform="matrix(4.747333e-03 -1 1 4.747333e-03 -2.5471 5.9174)" class="st4" cx="1.7" cy="4.2" rx="7" ry="6.4"/>
			</g>
		</g>
		<g id="Group_10885" transform="translate(81.018 0.392)">
			<g id="Group_10884" transform="translate(0 0)">
				
					<ellipse id="Ellipse_3747" transform="matrix(4.502991e-03 -1 1 4.502991e-03 -2.5469 5.9152)" class="st4" cx="1.7" cy="4.2" rx="7" ry="6.4"/>
			</g>
		</g>
		<g id="Group_10887" transform="translate(101.58 0.678)">
			<g id="Group_10886" transform="translate(0 0)">
				
					<ellipse id="Ellipse_3748" transform="matrix(4.502991e-03 -1 1 4.502991e-03 -2.5469 5.9152)" class="st4" cx="1.7" cy="4.2" rx="7" ry="6.4"/>
			</g>
		</g>
		<g id="Group_10889" transform="translate(121.824 0.407)">
			<g id="Group_10888" transform="translate(0 0)">
				
					<ellipse id="Ellipse_3749" transform="matrix(4.502991e-03 -1 1 4.502991e-03 -2.5469 5.9152)" class="st4" cx="1.7" cy="4.2" rx="7" ry="6.4"/>
			</g>
		</g>
		<g id="Group_10891" transform="translate(141.787 0.729)">
			<g id="Group_10890" transform="translate(0 0)">
				
					<ellipse id="Ellipse_3750" transform="matrix(4.502991e-03 -1 1 4.502991e-03 -2.5469 5.9152)" class="st4" cx="1.7" cy="4.2" rx="7" ry="6.4"/>
			</g>
		</g>
		<g id="Group_10893" transform="translate(162.309 0.734)">
			<g id="Group_10892" transform="translate(0 0)">
				
					<ellipse id="Ellipse_3751" transform="matrix(4.747333e-03 -1 1 4.747333e-03 -2.5471 5.9174)" class="st4" cx="1.7" cy="4.2" rx="7" ry="6.4"/>
			</g>
		</g>
	</g>
	<g id="Group_10896" transform="translate(198.797 93.347)">
		<g id="Group_10895">
			<path id="Path_16886" class="st4" d="M21.1,21.1c4.6-2,7.5-6.5,7.3-11.5c0-6.7-5.1-12.4-11.5-12.4S5.5,2.9,5.2,9.6
				c-0.1,5,2.8,9.5,7.3,11.5c-17.8,2.9-17.2,22-17.2,22l42.1,0.3C38,43.4,38.6,23.6,21.1,21.1z"/>
		</g>
	</g>
	<g id="Group_10898" transform="translate(142.819 151.351)">
		<g id="Group_10897" transform="translate(0 0)">
			
				<rect id="Rectangle_4392" x="61.4" y="-68.6" transform="matrix(4.625096e-03 -1 1 4.625096e-03 63.57 76.7979)" class="st4" width="17.8" height="150.1"/>
		</g>
	</g>
</g>
<g id="Group_10900" transform="translate(91.282 56.642)">
	<path id="Path_16887" class="st1" d="M203.7,42.8c8.3,6.1,15.7,13.4,22,21.7l28-5.1l18.5,43.3l-23.3,16.9
		c1.4,10.2,1.5,20.6,0.3,30.9l23.6,16.2l-17.5,43.6l-28.4-4.5c-6.1,8.3-13.4,15.7-21.7,22l5.1,28L167,274.4l-16.9-23.3
		c-10.2,1.4-20.6,1.5-30.9,0.3L103,275l-43.6-17.5l4.5-28.4c-8.3-6.1-15.7-13.4-22-21.7l-28,5.1l-17.8-42.7L19.2,153
		c-1.4-10.2-1.5-20.6-0.3-30.9l-23.6-16.3l17.5-44l28.4,4.5c6.1-8.3,13.4-15.7,21.7-22l-5.1-28l43.3-18.5l16.9,23.3
		c10.2-1.4,20.6-1.5,30.9-0.3l16.3-23.6l43.6,17.5L203.7,42.8L203.7,42.8z M154.9,89.6c-25.9-10.4-55.2,2.2-65.6,28
		s2.2,55.2,28,65.6c25.9,10.4,55.2-2.2,65.6-28c0,0,0,0,0,0C193.8,129.4,181,100.1,154.9,89.6z"/>
</g>
<g id="Group_10942" transform="translate(57.511 362.487)">
	<g id="Group_10902" transform="translate(0 425.635)" class="st5">
		<g id="Group_10901">
			<rect id="Rectangle_4393" x="-4.7" y="-2.8" class="st3" width="320.8" height="21.7"/>
		</g>
	</g>
	<g id="Group_10905" transform="translate(3.504 508.787)" class="st6">
		<g id="Group_10904">
			<g id="Group_10903">
				<path id="Path_16888" class="st1" d="M301.1-1.5c0,1-68.5,1.3-152.9,1.3S-4.7-0.9-4.7-1.5c0-1,68.5-1.3,152.9-1.3
					C233-2.8,301.1-2.2,301.1-1.5z"/>
			</g>
		</g>
	</g>
	<g id="Group_10908" transform="translate(3.504)" class="st6">
		<g id="Group_10907">
			<g id="Group_10906">
				<path id="Path_16889" class="st1" d="M301.1-1.5c0,1-68.5,1.3-152.9,1.3S-4.7-0.9-4.7-1.5s68.5-1.3,152.9-1.3
					C233-2.8,301.1-2.2,301.1-1.5z"/>
			</g>
		</g>
	</g>
	<g id="Group_10911" transform="translate(3.504 547.973)" class="st6">
		<g id="Group_10910">
			<g id="Group_10909">
				<path id="Path_16890" class="st1" d="M301.1-1.5c0,1-68.5,1.3-152.9,1.3S-4.7-0.9-4.7-1.5s68.5-1.3,152.9-1.3
					C233-2.8,301.1-2.2,301.1-1.5z"/>
			</g>
		</g>
	</g>
	<g id="Group_10914" transform="translate(3.504 586.841)" class="st6">
		<g id="Group_10913">
			<g id="Group_10912">
				<path id="Path_16891" class="st1" d="M301.1-1.5c0,1-68.5,1.3-152.9,1.3S-4.7-0.9-4.7-1.5s68.5-1.3,152.9-1.3
					C233-2.8,301.1-2.2,301.1-1.5z"/>
			</g>
		</g>
	</g>
	<g id="Group_10917" transform="translate(3.504 626.027)" class="st6">
		<g id="Group_10916">
			<g id="Group_10915">
				<path id="Path_16892" class="st1" d="M301.1-1.5c0,1-68.5,1.3-152.9,1.3S-4.7-0.9-4.7-1.5c0-1,68.5-1.3,152.9-1.3
					C233-2.8,301.1-2.2,301.1-1.5z"/>
			</g>
		</g>
	</g>
	<g id="Group_10920" transform="translate(3.504 665.15)" class="st6">
		<g id="Group_10919">
			<g id="Group_10918">
				<path id="Path_16893" class="st1" d="M301.1-1.5c0,1-68.5,1.3-152.9,1.3S-4.7-0.8-4.7-1.5s68.5-1.3,152.9-1.3
					C233-3.1,301.1-2.1,301.1-1.5z"/>
			</g>
		</g>
	</g>
	<g id="Group_10923" transform="translate(7.965 709.498)" class="st6">
		<g id="Group_10922">
			<g id="Group_10921">
				<path id="Path_16894" class="st1" d="M301.1-1.5c0,1-68.5,1.3-152.9,1.3S-4.7-0.9-4.7-1.5c0-1,68.5-1.3,152.9-1.3
					S301.1-2.2,301.1-1.5z"/>
			</g>
		</g>
	</g>
	<g id="Group_10941" transform="translate(3.823 45.877)">
		<g id="Group_10927">
			<g id="Group_10926">
				<g id="Group_10925">
					<g id="Group_10924">
						<rect id="Rectangle_4394" x="-4.7" y="-2.8" class="st1" width="321.5" height="310.9"/>
					</g>
				</g>
			</g>
		</g>
		<g id="Group_10931" transform="translate(24.85 124.25)" class="st5">
			<g id="Group_10930">
				<g id="Group_10929">
					<g id="Group_10928">
						<path id="Path_16895" class="st3" d="M-4.7,157.1L84.2-2.8l73,102.6l44-54.5L267,157.1L-4.7,157.1z"/>
					</g>
				</g>
			</g>
		</g>
		<g id="Group_10935" transform="translate(171.082 69.771)" class="st5">
			<g id="Group_10934">
				<g id="Group_10933">
					<g id="Group_10932">
						<circle id="Ellipse_3752" class="st3" cx="18.6" cy="20.5" r="23.3"/>
					</g>
				</g>
			</g>
		</g>
		<g id="Group_10940" transform="translate(22.955 23.872)" class="st5">
			<g id="Group_10939">
				<g id="Group_10938">
					<g id="Group_10937">
						<g id="Group_10936">
							<path id="Path_16896" class="st3" d="M268.9,258.8V254c0-3.5,0-8-0.3-14c0-12.4-0.3-30.3-0.3-52.9
								C268,141.9,268,76.9,267.7-0.5l1.3,1.3C190.3,0.7,97.2,0.7-2.8,1l1.3-1.3l0,0v137.3c0,43.6,0,84.7-0.3,122.7l-1.3-1.3
								c81.2,0.3,148.8,0.6,196.6,0.6c23.9,0.3,42.7,0.3,55.4,0.3c6.4,0,11.2,0,15,0.3h3.8C268.3,258.5,268.9,258.5,268.9,258.8
								l-4.8,0c-3.5,0-8,0-14.7,0.3c-12.7,0-31.5,0.3-55.1,0.3c-47.8,0.3-116,0.3-197.2,0.6h-1.3v-1.3c0-37.9,0-79.3-0.3-122.7V-1.2
								l0,0l1.6-1.6c99.7,0,192.7,0.3,271.8,0.3h1.3v1.3c-0.3,78.1-0.6,143-0.6,188.6c-0.3,22.3-0.3,40.5-0.3,52.6
								c0,5.7,0,10.5-0.3,13.7v3.5C268.9,258.1,268.9,258.8,268.9,258.8z"/>
						</g>
					</g>
				</g>
			</g>
		</g>
	</g>
</g>
<g id="Group_10950" transform="translate(715.716 2.8)">
	<g id="Group_10943">
		<path id="Path_16897" class="st1" d="M358.8,95.3H8c-7,0-12.7-5.7-12.7-12.7V9.9C-4.7,2.9,1-2.8,8-2.8h351.1
			c7,0,12.7,5.7,12.7,12.7v73C371.2,89.9,365.8,95.3,358.8,95.3z"/>
	</g>
	<g id="Group_10949" transform="translate(33.878 25.788)">
		<g id="Group_10948" transform="translate(72.531 0.018)">
			<g id="Group_10945">
				<rect id="Rectangle_4395" x="-4.7" y="-2.8" class="st7" width="92.7" height="7"/>
			</g>
			<g id="Group_10946" transform="translate(0 39.186)">
				<rect id="Rectangle_4396" x="-4.7" y="-2.8" class="st7" width="162.2" height="7"/>
			</g>
			<g id="Group_10947" transform="translate(0 19.115)">
				<rect id="Rectangle_4397" x="-4.7" y="-2.8" class="st7" width="234.8" height="7"/>
			</g>
		</g>
		<path id="credit-card_2_" class="st7" d="M37,5.5v3.1c0,0.4-0.3,0.7-0.7,0.7l0,0H-4c-0.4,0-0.7-0.3-0.7-0.7c0,0,0,0,0,0V5.5
			c0-0.4,0.3-0.7,0.7-0.7c0,0,0,0,0,0h40.3C36.6,4.8,37,5.1,37,5.5C37,5.5,37,5.5,37,5.5z M37,2.8V0.7c0-1.9-1.6-3.5-3.5-3.5l0,0
			H-1.2c-1.9,0-3.5,1.6-3.5,3.5c0,0,0,0,0,0v2.1c0,0.4,0.3,0.7,0.7,0.7c0,0,0,0,0,0h40.3C36.6,3.4,37,3.1,37,2.8
			C37,2.8,37,2.8,37,2.8z M28.7,16.5c-0.4,0.1-0.6,0.4-0.6,0.8c0,0,0,0.1,0,0.1c0.3,0.8,0.3,1.7,0,2.6c-0.1,0.4,0,0.8,0.4,0.9
			c0,0,0.1,0,0.1,0c1.2,0.2,2.4-0.6,2.6-1.8c0.2-1.2-0.6-2.4-1.8-2.6C29.3,16.5,29,16.4,28.7,16.5L28.7,16.5z M-4,10.7h40.3
			c0.4,0,0.7,0.3,0.7,0.7l0,0v13c0,1.9-1.6,3.5-3.5,3.5l0,0H-1.2c-1.9,0-3.5-1.6-3.5-3.5c0,0,0,0,0,0v-13C-4.7,11-4.4,10.7-4,10.7
			C-4,10.7-4,10.7-4,10.7z M8.1,20.9c0-0.4-0.3-0.7-0.7-0.7l0,0H1.6c-0.4,0-0.7,0.3-0.7,0.7c0,0.4,0.3,0.7,0.7,0.7h5.8
			C7.8,21.6,8.1,21.3,8.1,20.9C8.1,20.9,8.1,20.9,8.1,20.9z M8.1,16.6c0-0.4-0.3-0.7-0.7-0.7l0,0H1.6c-0.4,0-0.7,0.3-0.7,0.7
			c0,0.4,0.3,0.7,0.7,0.7h5.8C7.8,17.2,8.1,16.9,8.1,16.6L8.1,16.6L8.1,16.6z M32.8,18.7c0-2-1.6-3.6-3.7-3.6
			c-0.8,0-1.5,0.3-2.2,0.7c-1.6-1.2-3.9-0.9-5.1,0.8c-1.2,1.6-0.9,3.9,0.8,5.1c1.3,1,3.1,1,4.3,0c1.6,1.2,3.9,0.9,5.1-0.8
			C32.5,20.3,32.8,19.5,32.8,18.7L32.8,18.7z"/>
	</g>
</g>
<g id="Group_10956" transform="translate(377.693 21.915)">
	<g id="Group_10951" transform="translate(0.956 0.637)">
		<path id="Path_16899" class="st8" d="M114.1,23.3c4.7,3.6,9,7.8,12.7,12.4l15.9-2.9l10.5,24.5L140.3,67c0.9,5.8,1,11.7,0.3,17.5
			l13.4,9.2l-10.2,24.9l-15.9-2.5c-3.6,4.7-7.8,9-12.4,12.7l2.9,15.9l-24.5,10.5l-9.6-13.1c-5.8,0.9-11.7,1-17.5,0.3l-9.2,13.4
			l-24.9-10.2l2.5-15.9c-4.7-3.6-9-7.8-12.7-12.4l-15.9,2.9L-4.1,95.6L9,86.1c-0.9-5.8-1-11.7-0.3-17.5l-13.4-9.2L5.5,34.5L21.4,37
			c3.6-4.7,7.8-9,12.4-12.7L31,8.4L55.5-2.2l9.6,13.1c5.8-0.9,11.7-1,17.5-0.3l9.2-13.4l24.9,10.2L114.1,23.3L114.1,23.3z
			 M86.1,50.1c-14.8-6-31.6,1.1-37.6,15.9s1.1,31.6,15.9,37.6c14.8,6,31.6-1.1,37.6-15.9c0,0,0,0,0,0C108.4,73,101.1,56.1,86.1,50.1
			z"/>
	</g>
	<g id="Group_10953" transform="translate(51.492 50.845)">
		<g id="Group_10952">
			<path id="Path_16900" class="st9" d="M35.6-0.1c2.3,0.7,4.4,1.8,6.4,3.2c5.4,3.8,9.3,9.3,11.2,15.6c1.3,4.3,1.6,8.9,0.6,13.4
				c-1.3,4.8-3.2,9.9-7,14c-1.6,2.2-3.8,3.8-6.4,5.7c-2.5,1.6-5.1,2.7-8,3.5c-6.1,1.6-12.6,1.2-18.5-1.3c-5.8-2.5-10.7-6.7-14-12.1
				c-1.6-2.5-2.7-5.1-3.5-8c-0.9-2.7-1.3-5.5-1-8.3c0.1-5.4,1.7-10.6,4.8-15C2.7,6.8,6,3.5,10.1,1.2C17.4-3,24.7-3.3,29.2-2.3
				C31.4-1.9,33.5-1.1,35.6-0.1c0,0.3-2.5-0.9-7-1.3S17.1-1.7,10.4,2.4c-3.8,2.2-7,5.4-9.2,9.2C-1.6,15.9-3,20.9-3,26
				c0,2.7,0.3,5.4,1,8c0.6,2.9,1.8,5.6,3.5,8c3.2,5,7.9,8.9,13.4,11.2c5.5,2.1,11.5,2.6,17.2,1.3c2.9-0.6,5.6-1.8,8-3.5
				c2.3-1.3,4.3-3.1,6.1-5.1c3.3-3.7,5.6-8.2,6.7-13.1c1-4.2,0.9-8.6-0.3-12.7C50.7,13.8,47,8.3,41.9,4.3C40.1,2.5,37.9,1,35.6-0.1z
				"/>
		</g>
	</g>
	<g id="Group_10955">
		<g id="Group_10954">
			<path id="Path_16901" class="st9" d="M115.1,24v-1.3c0.1-1.1,0.3-2.1,0.6-3.2c0.3-2.9,1.3-6.7,1.6-12.1l0.3,0.3
				c-6.4-2.5-15-5.7-24.9-9.9l0.6-0.3c-2.9,4.1-5.7,8.6-9.2,13.4l-0.3,0.3h-0.3c-5.7-0.7-11.5-0.6-17.2,0.3H66l-0.3-0.3
				c-3.2-4.1-6.1-8.6-9.6-13.1l1,0.3C49.1,2,41.2,5.5,32.6,9l0.3-1c1,5.1,1.9,10.5,3.2,15.9v0.3l-0.3,0.3
				c-4.4,3.7-8.5,7.9-12.1,12.4l-0.3,0.3h-0.6c-5.1-1-10.5-1.6-15.9-2.5l1-0.6C4.5,42.1,1.3,50.4-2.5,59l-0.3-1
				c4.1,2.9,8.6,6.1,13.4,9.2l0.3,0.3v0.6c-0.7,5.7-0.6,11.5,0.3,17.2v0.6l-0.3,0.3C6.8,89.6,2.3,92.5-2.2,96l0.3-1
				c3.5,8,7,16.2,10.5,24.5l-1-0.6c5.1-1,10.5-1.9,15.9-2.9h0.6l0.3,0.3c3.6,4.6,7.8,8.7,12.4,12.1l0,0c0.3,0.3-0.3-1,0.3,1l0,0v1
				l-0.3,1.3l-0.3,1.9l-0.6,3.8c-0.6,2.9-1,5.4-1.3,8l-0.6-1c8.3,3.5,16.9,6.7,24.9,10.2l-1.3,0.3c3.2-4.5,6.1-8.9,9.2-13.4l0.3-0.3
				h0.6c5.7,0.9,11.5,0.7,17.2-0.3h0.6l0.3,0.3c3.5,4.5,6.4,8.9,9.6,13.1l-1-0.3c8.3-3.5,16.9-7,24.5-10.5l-0.6,1
				c-1.3-5.4-1.9-10.5-2.9-15.9l0,0l0.3-0.3c4.8-3.5,8.6-8,12.1-12.4l0.3-0.3h0.6c5.7,1,10.8,1.6,15.9,2.5l-1,0.6
				c3.5-8.6,7-17.2,10.2-24.8l0.3,1c-4.8-3.5-9.2-6.4-13.4-9.2l-0.3-0.3v-0.3c0.9-5.7,0.8-11.5-0.3-17.2v-0.3l0.3-0.3
				c4.8-3.5,9.2-6.4,13.1-9.6l-0.3,0.6c-3.8-9.6-7.6-17.8-10.5-24.8l0.3,0.3c-6.4,1.3-11.8,1.9-15.9,2.9h-0.3
				c-2.6-3.5-5.6-6.7-8.9-9.6c-0.9-0.7-1.8-1.4-2.5-2.2L115.1,24c0.3,0.3,0.6,0.5,1,0.6c0.7,0.8,1.6,1.4,2.5,1.9
				c3.5,2.8,6.6,6,9.2,9.6h-0.3c4.5-1,9.6-1.6,15.9-3.2h0.3v0.3c3.2,7,6.4,15,10.5,24.5l0.3,0.3l-0.3,0.3c-4.1,3.2-8.3,6.1-13.1,9.6
				l0.3-0.6c1.1,5.8,1.2,11.7,0.3,17.5l-0.3-0.6c4.1,2.9,8.6,5.7,13.4,9.2l0.3,0.3l-0.3,0.6c-3.2,8-6.4,16.2-10.2,24.9l-0.3,0.6
				h-0.6c-5.4-1-10.5-1.6-15.9-2.5l0.6-0.3c-3.6,4.8-7.7,9.1-12.4,12.7l0.3-1c1,5.4,1.9,10.5,3.2,15.9v0.6l-0.6,0.3
				c-8,3.5-16.2,7-24.5,10.5l-0.6,0.3l-0.3-0.6c-3.2-4.1-6.4-8.6-9.6-13.1l1,0.3c-5.8,0.9-11.7,1-17.5,0.3l1-0.3
				c-3.2,4.5-6.1,8.9-9.2,13.4l-0.3,0.6l-0.6-0.3c-8-3.5-16.6-6.7-24.9-10.2l-0.6-0.3v-0.6c0.6-2.6,1-5.3,1.3-8l0.6-3.8l0.3-1.9
				l0.3-1.3v-1l0,0c0.6,1.6,0.3,0.6,0.3,1l0,0c-4.8-3.6-9.1-7.7-12.7-12.4l1,0.3c-5.7,1.3-10.8,1.9-15.9,2.9H7.1l-0.3-0.6
				c-3.5-8.3-7.3-16.9-10.5-24.5l-0.3-0.6l0.6-0.3C1,91.8,5.5,89,9.6,85.8L9.3,87c-0.9-5.8-1-11.7-0.3-17.5l0.3,1
				c-4.8-3.2-9.2-6.4-13.4-9.2l-0.6-0.3l0.3-0.6c3.5-8.6,7-17.2,10.2-24.8l0.3-0.6h0.6c5.7,1,11.2,1.6,15.9,2.5l-0.6,0.3
				c3.5-4.9,7.7-9.1,12.4-12.7l-0.3,0.6c-1.3-5.7-1.9-10.8-2.9-15.9V9l0.6-0.3c8.6-3.5,17.2-7.3,24.9-10.5v-0.3h0.3
				c3.5,4.8,6.4,8.9,9.6,13.1L66,10.6c5.8-1,11.7-1,17.5,0l-0.6,0.3c3.5-4.8,6.4-9.2,9.2-13.4l0.3-0.3h0.3
				c10.2,4.1,18.5,7.6,24.9,10.2h0.3v0.3c-1,5.1-1.6,9.2-1.9,11.8c-0.3,1-0.5,2.1-0.6,3.2C115.2,23.1,115.1,23.5,115.1,24z"/>
		</g>
	</g>
</g>
<g id="Group_10964" transform="translate(716.991 641.571)">
	<g id="Group_10957" transform="translate(0.637 0.637)">
		<path id="Path_16902" class="st7" d="M145.3,30.3c6.1,4.5,11.2,9.9,15.9,15.3l20.1-3.5l13.4,31.2l-16.9,12.1
			c1.2,7.3,1.3,14.7,0.3,22l16.9,11.8l-12.7,31.5l-20.4-3.5c-4.5,6.1-9.9,11.2-15.3,15.9l3.5,20.1l-31.2,13.4l-12.1-16.9
			c-7.3,1.2-14.7,1.3-22,0.3L73,197l-31.5-12.8l3.5-20.4c-6.1-4.5-11.2-9.9-15.9-15.3L9,152l-13.4-31.2l16.9-12.1
			c-1.2-7.3-1.3-14.7-0.3-22L-4.7,74.9L8,43.4l20.4,3.5C32.9,41,38,35.6,43.7,31l-3.5-20.1L71.4-2.5l12.1,16.9
			c7.3-1.2,14.7-1.3,22-0.3l11.8-16.9l31.5,12.7L145.3,30.3L145.3,30.3z M110.3,64.1c-18.7-7.6-39.9,1.4-47.5,20.1
			c-7.6,18.7,1.4,39.9,20.1,47.5c18.7,7.6,39.9-1.4,47.5-20.1C138.3,93.1,129.1,71.7,110.3,64.1z"/>
	</g>
	<g id="Group_10963">
		<g id="Group_10958" transform="translate(0.637 0.637)">
			<path id="Path_16903" class="st8" d="M145.3,30.3c6.1,4.5,11.2,9.9,15.9,15.3l20.1-3.5l13.4,31.2l-16.9,12.1
				c1.2,7.3,1.3,14.7,0.3,22l16.9,11.8l-12.7,31.5l-20.4-3.5c-4.5,6.1-9.9,11.2-15.3,15.9l3.5,20.1l-31.2,13.4l-12.1-16.9
				c-7.3,1.2-14.7,1.3-22,0.3L73,197l-31.5-12.8l3.5-20.4c-6.1-4.5-11.2-9.9-15.9-15.3L9,152l-13.4-31.2l16.9-12.1
				c-1.2-7.3-1.3-14.7-0.3-22L-4.7,74.9L8,43.4l20.4,3.5C32.9,41,38,35.6,43.7,31l-3.5-20.1L71.4-2.5l12.1,16.9
				c7.3-1.2,14.7-1.3,22-0.3l11.8-16.9l31.5,12.7L145.3,30.3L145.3,30.3z M110.3,64.1c-18.7-7.6-39.9,1.4-47.5,20.1
				c-7.6,18.7,1.4,39.9,20.1,47.5c18.7,7.6,39.9-1.4,47.5-20.1C138.3,93.1,129.1,71.7,110.3,64.1z"/>
		</g>
		<g id="Group_10960" transform="translate(64.992 64.572)" class="st10">
			<g id="Group_10959">
				<path id="Path_16904" class="st3" d="M46,0.2c2.8,1,5.5,2.4,8,4.1c6.7,4.9,11.6,11.8,14,19.8c1.5,5.6,1.8,11.5,1,17.2
					c-1.2,6.5-4.2,12.6-8.6,17.5c-2.3,2.7-5,5-8,7c-3.3,2-6.8,3.5-10.5,4.5c-7.3,1.9-15.6,1.3-23.3-1.3C11.2,66.1,5,60.8,1,54
					c-1.9-3.3-3.4-6.8-4.5-10.5c-0.9-3.4-1.3-7-1.3-10.5c0.3-6.6,2.3-13.1,5.7-18.8C4.2,9.3,8.4,5.3,13.5,2.4
					c7.3-4.4,15.8-6,24.2-4.8C40.5-2,43.3-1.1,46,0.2c0,0.3-3.2-1.3-8.6-1.9C29.2-2.9,21-1.1,14.1,3.3C9.3,6.2,5.3,10.1,2.3,14.8
					c-3.4,5.4-5.4,11.5-5.7,17.8c-0.2,3.4,0.2,6.9,1.3,10.2c0.9,3.5,2.3,6.8,4.1,9.9c4.1,6.5,10.1,11.5,17.2,14.3
					c7.3,2.9,15,3.5,22,1.3c3.5-0.9,6.8-2.2,9.9-4.1c3-1.7,5.7-3.8,8-6.4c4.3-4.7,7.2-10.6,8.3-16.9c1.2-5.5,1-11.2-0.6-16.6
					C63.8,14.2,58.1,8.1,53.3,4.9C48.8,1.8,46,0.5,46,0.2z"/>
			</g>
		</g>
		<g id="Group_10962" class="st6">
			<g id="Group_10961">
				<path id="Path_16905" class="st3" d="M146,31c0-0.4,0.1-0.9,0.3-1.3c0.1-1.3,0.3-2.6,0.6-3.8c0.6-3.5,1.3-8.6,2.2-15l0.3,0.3
					c-8-3.2-18.8-7.6-31.5-12.7l0.6-0.3c-3.5,5.1-7.6,10.8-11.8,17.2h-0.6c-7.3-1-14.7-0.9-22,0.3h-0.3l-0.3-0.3
					C80,9.9,75.6,4.5,71.4-1.2l1,0.3C62.5,3.2,52,7.7,41.2,12.5l0.3-1c1.3,6.1,2.5,13.1,3.5,20.1v0.3l-0.3,0.3
					c-5.8,4.5-10.9,9.7-15.3,15.6l-0.3,0.3h-0.6c-6.1-1.3-13.1-2.2-20.4-3.5L9,44C5.2,53.9,0.7,64.7-3.8,75.6l-0.3-1
					c5.4,3.5,11.2,7.6,16.9,11.8l0.3,0.3v0.6c-1,7.3-0.9,14.7,0.3,22v0.6l-0.3,0.3c-5.4,3.8-10.8,8-16.9,12.1l0.3-1
					c4.1,9.9,8.6,20.4,13.4,31.2L9,152c6.4-1.3,13.1-2.5,20.1-3.5h0.6l0.3,0.3c4.4,5.9,9.7,11,15.6,15.3l0,0l0.3,0.3v0.6
					c-1.3,6.7-2.2,13.7-3.5,20.4l-0.6-1c10.5,4.1,21.3,8.3,31.5,12.7l-1.3,0.3c3.8-5.7,8-11.2,11.8-16.9l0.3-0.3h0.6
					c7.3,1,14.7,0.9,22-0.3h0.6l0.3,0.3c4.1,5.7,8,11.2,12.1,16.9l-1-0.3c10.5-4.5,21.3-8.9,31.2-13.4l-0.6,1
					c-1.3-7-2.5-13.7-3.5-20.1v-0.6l0.3-0.3c5.7-4.6,10.9-9.8,15.3-15.6l0.3-0.3h0.6c7,1.3,13.7,2.2,20.4,3.5l-1,0.6
					c4.5-11.2,8.6-21.7,12.7-31.5l0.3,1c-5.7-4.1-11.5-8-16.9-11.8l-0.3-0.3v-0.3c1-7.3,0.9-14.7-0.3-22v-0.3l0.3-0.3
					c6.1-4.5,11.5-8.3,16.9-12.1l-0.3,0.6c-5.1-12.1-9.6-22.3-13.1-31.2l0.3,0.3c-8,1.3-15,2.5-20.1,3.5h-0.3
					c-3.3-4.5-7.2-8.5-11.5-12.1c-1.3-1.3-2.5-1.9-3.2-2.9C146.5,31.8,146.3,31.3,146,31c0.4,0.3,0.8,0.7,1.3,0.9
					c1,0.6,1.9,1.3,3.5,2.5c4.4,3.6,8.4,7.6,11.8,12.1h-0.3c5.7-1.3,12.1-2.2,20.1-3.8h0.3v0.3c3.8,8.9,8,19.1,13.4,31.2l0.3,0.3
					l-0.3,0.3c-5.1,3.5-10.5,8-16.6,12.1l0.3-0.6c1.2,7.4,1.3,14.9,0.3,22.3l-0.3-0.6c5.4,3.5,10.8,7.6,17.2,11.8l0.3,0.3l-0.3,0.6
					c-3.8,10.2-8,20.4-12.7,31.5l-0.3,0.6h-0.6c-6.7-1.3-13.4-2.2-20.4-3.5l0.6-0.3c-4.5,5.9-9.8,11.3-15.6,15.9l0.3-1
					c1.3,6.7,2.5,13.4,3.5,20.1v0.6l-0.6,0.3c-10.2,4.5-20.7,8.6-31.2,13.4l-0.6,0.3l-0.3-0.6c-3.8-5.7-8-10.8-12.1-16.9l1,0.3
					c-7.4,1.2-14.9,1.3-22.3,0.3l1-0.3c-3.8,5.7-8,11.2-11.8,16.9l-0.3,0.6l-0.6-0.3c-10.5-4.1-21-8.3-31.5-12.7l-0.6-0.3v-0.6
					c1.3-6.7,2.2-13.4,3.5-20.4l0.3,1l0,0c-6-4.5-11.4-9.7-15.9-15.6l1,0.3c-7,1.3-13.7,2.5-20.1,3.5H9.6l-0.3-0.6
					C4.8,142.8,0.1,132-4.1,122.1l-0.3-0.6l0.6-0.3C2,117,7.7,112.8,13.1,109l-0.3,1c-1.2-7.4-1.3-14.9-0.3-22.3l0.3,1
					C7.1,84.8,1,80.7-4.1,76.8l-0.6-0.3l0.3-0.6C0.1,65.1,4.2,54.2,8.3,44.4l0.3-0.6h0.6c7,1.3,14,2.2,20.4,3.5l-0.6,0.3
					c4.5-5.9,9.8-11.3,15.6-15.9l-0.3,0.6c-1.3-7-2.5-14-3.5-20.1v-0.6l0.6-0.3C52.3,6.4,63.1,2,72.7-2.2l0.6-0.3l0.3,0.3
					c4.1,5.7,8.3,11.5,12.1,16.9l-0.6-0.3c7.4-1.2,14.9-1.3,22.3-0.3l-0.6,0.3c4.1-6.1,8-11.8,11.8-16.9l0.3-0.3h0.3
					c12.7,5.4,23.6,9.6,31.5,12.7h0.3v0.3c-1.3,6.4-1.9,11.5-2.5,15c-0.3,1.3-0.5,2.5-0.6,3.8C146,30.3,146,31,146,31z"/>
			</g>
		</g>
	</g>
</g>
<g id="Group_11300" transform="translate(5.9 491.335)">
	<ellipse id="Ellipse_3823" class="st11" cx="136.4" cy="652.1" rx="141.1" ry="17.5"/>
	<g id="Group_11299" transform="translate(2.105)">
		<g id="Group_11298">
			<g id="Group_11223" transform="translate(0 94.008)">
				<g id="Group_11210" transform="translate(0 150.361)">
					<g id="Group_11209">
						<path id="Path_16958" class="st12" d="M5.3-2.6c0,0-8-1.3-9.2,3.2s-0.6,37-0.3,40.5s7.6,8.6,16.9,11.2
							C11,30.8,5.3-2.6,5.3-2.6z"/>
					</g>
				</g>
				<g id="Group_11212" transform="translate(7.612 121.857)">
					<g id="Group_11211">
						<path id="Path_16959" class="st13" d="M12.7-2.8c0,0-12.4,0.6-15.3,7.3c-2.9,7-2.5,65-0.3,71s13.1,6.1,34.4,11.8
							C19,66.7,18.1,58.1,18.1,54.2C18.4,51.4,12.7-2.8,12.7-2.8z"/>
					</g>
				</g>
				<g id="Group_11214" transform="translate(16.893 33.926)">
					<g id="Group_11213">
						<path id="Path_16960" class="st13" d="M18-2.8c0,0-10.5,11.5-15.9,30.6s-7.3,40.5-6.7,41.7c0.3,1.3,10.8,2.9,11.8,2.9
							C7.5,72.1,18-2.8,18-2.8z"/>
					</g>
				</g>
				<path id="Path_16961" class="st14" d="M172.6,12.3c-4.5-9.6-30.3-16.2-51.9-15c-17.2,1.3-34.4,5.4-51,10.5
					c-8,2.5-15.9,4.5-23.6,8.3c-8.9,4.5-12.7,11.5-15.6,21c-8,27.7-10.5,56.1-11.8,84.7c-1,22.9-1.6,46.5,0.3,69.5
					c0.6,5.1,0.3,21.3,6.4,23.9c12.4,5.1,32.5,7.6,41.7,6.4c5.4-0.6,5.4-27.1,5.7-30.6c1.3-20.1,1.3-40.5,1.6-60.5
					c0.3-24.9-0.3-49.7,1.6-74.9c1-10.2,7.3-8,15-9.2c6.7-1,13.1-1.9,19.4-3.2C121.3,42.3,182.1,32.7,172.6,12.3z"/>
				<g id="Group_11216" transform="translate(26.811 123.959)">
					<g id="Group_11215">
						<path id="Path_16962" class="st13" d="M37.1,5l-1.6,77.4c0,5.7-4.5,10.5-9.6,9.9c-6.3-0.4-12.6-1.3-18.8-2.9
							c-4.1-1.1-7.2-4.4-8-8.6C-3.7,65.2-5.9,41.6-4,3.7c0.3-5.1,5.1-8,9.2-5.7C19.9,5.3,37.1,5,37.1,5z"/>
					</g>
				</g>
				<g id="Group_11218" transform="translate(94.098 0.942)">
					<g id="Group_11217">
						<path id="Path_16963" class="st13" d="M-4.7,6.9c0,0-0.3,4.8,2.5,7.3c1.3,1.6,4.8-0.3,4.8-0.3s21-8,25.5-6.4
							c3.2-1.9,4.1-7.3,3.2-8.9C29.7-2.9,8.7-5.8-4.7,6.9z"/>
					</g>
				</g>
				<g id="Group_11220" transform="translate(48.377 3.66)">
					<g id="Group_11219">
						<path id="Path_16964" class="st13" d="M47.1-2.8C38,0.7,29.3,5,21,9.9C12.7,15,5.7,20.5,1.5,29.7C-2,38.3-2.6,48.2-3.3,57.4
							C-3.9,66-5.2,75.3-4.5,83.9c0,1,1.3,1.3,1.3,0.3c3.2-16.6,0-33.5,5.1-49.7C7.9,14.4,30.2,7.1,47.1-2.2
							C48-2.5,47.7-2.8,47.1-2.8L47.1-2.8z"/>
					</g>
				</g>
				<g id="Group_11222" transform="translate(45.124 87.046)">
					<g id="Group_11221">
						<path id="Path_16965" class="st13" d="M-1-2.1v5.4C-0.9,4.1-1,4.9-1.3,5.6c0,1.3-0.3,2.9-1.3,1.3C-3.8,3.7-1.3,0.8,0-1.8
							c0.3-0.6-0.6-1.3-1.3-1c-1.9,1.3-2.9,4.1-3.2,6.4c-0.3,1.6-0.6,5.1,1.3,6.1C1.3,12.6,0.3-0.8,0-2.1C0-3-1-2.7-1-2.1L-1-2.1z"
							/>
					</g>
				</g>
			</g>
			<g id="Group_11224" transform="translate(211.619 157.245)">
				<path id="Path_16966" class="st15" d="M-2.7-2.8C3-0.9,7.6,3.4,10,9c0.4,0.8,0.6,1.7,0.6,2.5c0,0.8-0.2,1.6-0.6,2.2
					c-0.6,1.6-1.2,3.2-1.6,4.8c-0.5,1.7-1.3,3.3-2.2,4.8C4.9,24.6,3,25.2,1.7,24c-1.5-1.7-2.7-3.6-3.5-5.7c-2.1-4.3-3.1-9-2.9-13.7
					c0.1-2.1,0.5-4.1,1.3-6.1"/>
			</g>
			<g id="Group_11225" transform="translate(168.977 117.102)">
				<path id="Path_16967" class="st16" d="M84.5,32.9C61.2,17.3,23.3,3.6,9.9-2.8L-4.7,36.1c22,10.2,72,31.2,91.4,31.2l0,0
					C70.8,62.8,84.5,32.9,84.5,32.9z"/>
			</g>
			<path id="Path_16968" class="st16" d="M287.9,141.4c13.7-33.1,23.3-70.4,23.3-70.4l-8.6-5.7c0,0-24.5,34.7-43,70.1
				c0,0-21,33.5-10.2,46.2l0,0c2.5,1.9,5.1,2.9,6.7,2.5C269.1,182.2,281.5,155.4,287.9,141.4z"/>
			<g id="Group_11226" transform="translate(107.364 80.783)">
				<path id="Path_16969" class="st16" d="M36.2-1.2c-1.3,6.4,0,13.4,1.6,19.4c1.9,7.3,4.8,6.7,12.1,7.3c4.8,0.3,13.1,0,13.1,0
					s3.5,7.6,3.5,8c0.3,0.6,0,1.3,0,1.6c-1.3,7.6-5.7,14-10.8,19.4c-3.2,3.2-6.1,5.7-10.2,7.6c-6.1,2.9-13.4,2.5-20.1,1.3
					c-5.5-1-11-2.5-16.2-4.5c-2.4-0.8-4.7-2-6.7-3.5c-4.1-3.5-5.7-9.9-6.7-15.3c-0.3-2.2-1-4.5,0.3-6.4c1-1.3,3.2-1.9,4.1-2.5
					c4.1-1.9,8-1.9,12.4-3.5C25,22.4,23.8,8,19.9-2.8"/>
			</g>
			<g id="Group_11227" transform="translate(163.561 109.098)">
				<path id="Path_16970" class="st17" d="M-4.7-2.8c8.1-0.4,16.2,1.2,23.6,4.5c19.8,8.6,38.9,21.7,38.9,21.7s-11.8,0.3-11.2,40.5
					c0,3.5,1.3,6.4,4.1,9.2C38,68,15,54.6,15,54.6"/>
			</g>
			<g id="Group_11228" transform="translate(110.676 22.126)">
				<path id="Path_16971" class="st16" d="M-4.7,38L16-2.8C40.9-4,56.5,28.5,62.5,39.9c2.2,4.5,4.1,9.9,1.9,14.3
					c-1.9,3.5-5.7,5.4-9.6,6.7C44,64.8,2.3,75-4.7,38z"/>
			</g>
			<g id="Group_11229" transform="translate(161.968 44.783)">
				<path id="Path_16972" class="st16" d="M-4.7-2.8c4.8,2.9,15.6,5.7,16.9,8.3c1,2.5-8.6,6.1-13.4,8"/>
			</g>
			<g id="Group_11234" transform="translate(63.812)">
				<g id="Group_11230" transform="translate(0 54.34)">
					<path id="Path_16973" class="st18" d="M42.2,22.7C32.6,35.4,12.5,41.2,0.4,36.4c-6.1-2.2-5.7-9.9-4.1-12.7
						C2.3,12.5,10,5.5,20.5-2.8"/>
				</g>
				<g id="Group_11231" transform="translate(42.722 4.292)">
					<path id="Path_16974" class="st19" d="M1,22.1L23,3c4.8-3.2,10.2-5.7,15.6-5.7c5.7-0.3,11.8,1.9,14.7,6.7
						c1.3,2.1,1.8,4.6,1.3,7c-0.5,1.6-1.5,2.9-2.9,3.8c1.2,0.6,2.2,1.5,2.9,2.5c1.3,1.5,1.9,3.5,1.6,5.4c-0.6,3.5-4.1,5.7-7.6,6.7
						c-5.6,1.4-11.6,1.4-17.2,0c1.6,4.8,1.6,12.4-14.3,15c2.2,1.3,3.8,3.5,3.5,6.1C20,53,17.9,55,15.4,55.2
						c1.3,4.5,2.5,8.6,3.5,13.1c0.6,2.2,1.3,4.8,0.6,7c-1,3-3.6,5.2-6.7,5.7C8.3,82.3-3.1,76.2-4.7,68.3L1,22.1z"/>
				</g>
				<g id="Group_11232" transform="translate(21.394)">
					<path id="Path_16975" class="st20" d="M52.6-0.1C41.2-3.3,9.6-10.3-2.5,26.1c-4.1,12.7-4.1,36.6,15,46.5L28.7,56L52.9,6.6"/>
				</g>
				<g id="Group_11233" transform="translate(36.351 1.455)">
					<path id="Path_16976" class="st18" d="M36.4-2.8l8,1.9c-8.9,27.7-19.8,57-40.5,77.7l-8.6-5.1C13.5,54.2,27.2,22,36.4-2.8z"/>
				</g>
			</g>
			<g id="Group_11235" transform="translate(123.018 63.854)">
				<path id="Path_16977" class="st16" d="M2.7-1.8C1.4-3-0.6-3.1-2.1-2.1c-1.3,1-2.5,2.5-2.5,4.1c-0.2,1.8,0.3,3.6,1.3,5.1
					c1.8,2.9,4.9,4.7,8.3,4.8c3.5-0.1,6.6-2.4,7.6-5.7"/>
			</g>
			<g id="Group_11244" transform="translate(122.974 253.458)">
				<g id="Group_11242" transform="translate(26.917 307.12)">
					<g id="Group_11236" transform="translate(4.931)">
						<path id="Path_16978" class="st21" d="M18.4-2.2c0,0-1.9,37.3-4.5,58.3c0,0,14.7,14,21.7,17.5c0,0-43,3.2-40.1-8.6
							c3.2-11.8,3.2-42.7,0-67.9"/>
					</g>
					<path id="Path_16979" class="st17" d="M53.2,83.5c6.4,1.9-1.3,10.5-4.8,11.2s-6.7-0.6-10.2-1.3C25.7,89.9,12.8,87.7-0.3,87
						c-0.8,0-1.6-0.2-2.2-0.6c-1.9-1.3-2.7-3.6-1.9-5.7c0.7-1.2,1.1-2.5,1.3-3.8"/>
					<g id="Group_11237" transform="translate(0.29 58.321)">
						<path id="Path_16980" class="st22" d="M-4.4,17.3C-3.1,12.8-4.1-3.1,2-1.2c3.8,5.7,10.5,6.7,15.9,2.5c1-0.6,3.5-7,6.7-2.5
							c3.5,4.8,8.3,8,15.3,13.1c3.2,2.5,15.9,8.3,15.9,12.7c-0.3,5.1-2.2,8-7,8c-5.1,0.3-12.1-1.9-16.9-3.5
							c-9.9-3.5-21-4.1-31.2-5.1c-1.7,0.1-3.5-0.5-4.8-1.6C-5,21.4-4.7,19.5-4.4,17.3z"/>
					</g>
					<g id="Group_11238" transform="translate(4.75 57.665)">
						<path id="Path_16981" class="st17" d="M17.3-1.5C14.1,5.8-3.4,9-4.7-1.2c0-1,1-1.3,1.3-1C0.1,1.3,3.9,2.9,8.7,1.7
							c3.2-1,5.1-3.5,8-4.5c0.5,0.1,0.8,0.5,0.7,1C17.4-1.7,17.3-1.6,17.3-1.5L17.3-1.5z"/>
					</g>
					<g id="Group_11239" transform="translate(34.697 68.178)">
						<path id="Path_16982" class="st17" d="M3.9-0.9C2.5,0.3,1.3,1.6,0.1,2.9c-1.3,1.3-1.9,3.2-3.5,3.8c-0.6,0.3-1.3,0-1.3-1
							c0-4.1,4.8-7.3,8-8.6C3.9-2.5,4.9-1.5,3.9-0.9L3.9-0.9z"/>
					</g>
					<g id="Group_11240" transform="translate(29.919 65.5)">
						<path id="Path_16983" class="st17" d="M4.2-1.1C2.6-0.4,1.2,0.7,0.1,2.1C-1,3.4-2.2,4.5-3.4,5.6C-4.1,6.2-4.7,5.9-4.7,5
							c0.2-2,1.2-3.9,2.9-5.1c1.7-1.2,3.7-2.1,5.7-2.5C4.9-3.3,5.2-1.4,4.2-1.1L4.2-1.1z"/>
					</g>
					<g id="Group_11241" transform="translate(25.14 61.387)">
						<path id="Path_16984" class="st17" d="M5.5,0.2C3.7,1.1,2.1,2.3,0.7,3.7c-1.3,1.3-2.2,3.2-3.8,4.1c-1,0.6-1.6-0.3-1.6-1
							c0-4.8,5.7-8,9.6-9.6C5.8-3.3,7.1-0.8,5.5,0.2L5.5,0.2z"/>
					</g>
				</g>
				<g id="Group_11243">
					<path id="Path_16985" class="st23" d="M1.8-2.8C-15.4,24.6,5,151.4,23.1,209.4c-10.5,37.6,6.1,125.8,6.1,125.8
						c6.6,1.6,13.4,1.8,20.1,0.6c0.6-2.5,18.2-127.4,16.2-151c-2.5-31.2,17.2-131.6-8-163.1"/>
				</g>
			</g>
			<g id="Group_11253" transform="translate(69.981 256.963)">
				<g id="Group_11251" transform="translate(0 308.394)">
					<g id="Group_11245" transform="translate(3.139)">
						<path id="Path_16986" class="st21" d="M25.8,0.1c0,0-5.7,36.6-10.8,57.7c0,0,12.7,15.3,19.4,19.8c0,0-43-1.3-38.9-12.7
							C0,53.3,3.2,22.7,2.9-2.8"/>
					</g>
					<path id="Path_16987" class="st17" d="M53.2,83.2c6.4,1.6-1,10.5-4.1,11.2c-3.5,0.6-6.7-0.3-10.2-1.3
						c-12.7-3-25.8-4.6-38.9-4.8c-0.8,0.1-1.6-0.1-2.2-0.6c-2.2-1.6-2.9-4.1-2.2-5.4c0.7-1.2,1.1-2.5,1.3-3.8"/>
					<g id="Group_11246" transform="translate(0.057 59.46)">
						<path id="Path_16988" class="st22" d="M-4.5,18.3c1-4.8-0.6-20.4,5.7-18.8C5,5,12,5.9,17.5,1.5c1-0.6,3.2-7,6.7-2.9
							C28,3,32.7,6.2,40.1,11.3c3.5,2.2,16.2,8,16.6,11.8c0,5.1-1.9,8-6.7,8.3c-5.1,0.6-12.4-1.6-17.2-3.2
							c-10.2-3.2-21-3.5-31.5-3.8c-1.7,0.1-3.4-0.4-4.8-1.3C-4.9,22.2-4.9,20.3-4.5,18.3z"/>
					</g>
					<g id="Group_11247" transform="translate(3.739 58.62)">
						<path id="Path_16989" class="st17" d="M17.3-1.5C14.4,6.1-3.1,9.6-4.7-0.3c0-0.6,1-1.3,1.3-1c3.2,2.9,6.1,4.5,10.5,3.5
							c3.8-0.6,5.7-3.5,9.2-5.1C17-2.5,17.6-1.9,17.3-1.5L17.3-1.5z"/>
					</g>
					<g id="Group_11248" transform="translate(34.005 69.071)">
						<path id="Path_16990" class="st17" d="M3.9-1.1C2.5,0.1,1.2,1.5,0.1,3c-1.3,1.3-1.9,2.9-3.5,3.8c-0.6,0.3-1.3,0.3-1.3-0.6
							c0-4.1,4.1-7.6,7.6-8.9C4.2-3.1,4.9-2.1,3.9-1.1L3.9-1.1z"/>
					</g>
					<g id="Group_11249" transform="translate(29.544 65.629)">
						<path id="Path_16991" class="st17" d="M4.2-0.9c-3.5,1.3-5.1,4.8-7.6,7c-0.6,0.6-1.3,0-1.3-1c0.2-2,1.1-3.8,2.5-5.1
							c1.6-1.3,3.5-1.9,5.7-2.9C4.5-2.8,4.9-1.2,4.2-0.9L4.2-0.9z"/>
					</g>
					<g id="Group_11250" transform="translate(24.447 61.488)">
						<path id="Path_16992" class="st17" d="M5.2,0.4C3.6,1.7,1.7,2.6,0.4,4.2c-1.3,1.3-2.2,3.2-3.5,4.1c-1,0.6-1.6,0-1.6-1.3
							c0-4.8,5.1-8,8.9-9.9C5.8-2.5,7.1-0.3,5.2,0.4L5.2,0.4z"/>
					</g>
				</g>
				<g id="Group_11252" transform="translate(3.499)">
					<path id="Path_16993" class="st23" d="M10.2-2.8C-9.9,22.7-8.9,97.6,8.6,210.3c-15,36-6.1,117.6-6.1,117.6
						c6.2,3.1,13.1,4.6,20.1,4.1c1-2.2,30.3-118.2,30.9-141.8c1-31.2,31.2-128.7,9.6-163.1"/>
				</g>
				<path id="Path_16994" class="st24" d="M119.5,50.1c-4.1,4.1-8.3,8.6-13.7,11.8c-6.8,3.7-14.3,5.8-22,6.1c-8,1-15.3,1-23.3,1.6
					c-5.7,1-11.8,2.2-17.5,2.5s-11.5-0.3-17.2-0.6c-5.1,0-10.5,0-14.7-2.2c-1.6-1-3.2-1.9-3.8-3.5c-1.6-3.5,0-7.6,1.9-10.5
					c4.1-6.4,10.5-11.2,17.2-15c6.7-3.5,14-5.7,21.7-7.6"/>
			</g>
			<g id="Group_11254" transform="translate(68.622 108.819)">
				<path id="Path_16995" class="st20" d="M45,1.3c-0.3,0,1.3,3.5,1.3,3.8c0.6,1.4,1.4,2.6,2.5,3.5c3.8,5.1,10.2,8.3,16.2,9.9
					c6.7,1.2,13.5-0.6,18.8-4.8c2.5-1.9,4.5-4.4,5.7-7.3c0.3-1,1.9-9.2,0.6-9.2H102l22.6,56.7c-1.6,80.6,0,141.8,0,141.8
					c-14,11.2-23.9,11.8-65.3,15.6c-41.1,3.8-51,6.1-64-6.7c4.1-16.9-1.9-91.1,31.2-168.5c3.8-8.6-3.5-19.4,1.3-28.7
					C29.7,5.2,38,3.6,45,1.3z"/>
			</g>
			<g id="Group_11261" transform="translate(68.94 108.819)">
				<g id="Group_11260">
					<g>
						<defs>
							<path id="SVGID_1_" d="M44.7,1.3c-1.3,1.3,9.2,12.7,10.5,13.1c8.9,6.1,20.1,6.1,28.7-0.6c2.5-1.9,4.5-4.4,5.7-7.3
								c0.3-1,1.9-9.2,0.6-9.2H102l22.6,56.7c-1.6,80.6,0,141.8,0,141.8c-14,11.2-23.9,11.8-65.3,15.6c-41.1,3.8-51,6.1-64-6.7
								C0.1,185.8-8.8,89.6,44.7,1.3z"/>
						</defs>
						<clipPath id="SVGID_2_">
							<use xlink:href="#SVGID_1_"  style="overflow:visible;"/>
						</clipPath>
						<g id="Group_11259" class="st25">
							<g id="Group_11258" transform="translate(-6.69 27.494)">
								<g id="Group_11255" transform="translate(3.823 28.259)">
									<path id="Path_16996" class="st26" d="M2,62.8C5.5,37.3,22.4,16.3,39.3-2.8C16.3,9-0.9,32.2-4.7,58"/>
								</g>
								<g id="Group_11256" transform="translate(19.115)">
									<path id="Path_16997" class="st26" d="M18.9,30.2c1-0.6,0.3-1.6,1-2.9c2.2-6.1,5.7-13.4,3.5-19.4c-1-2-2.1-3.9-3.5-5.7
										c-1.2-1.4-2.6-2.7-4.1-3.8c-3.5-1.9-8-1.3-11.2,0.3C1,0.3-1.8,3.2-4.7,6C1.5,4.4,8,4.1,14.4,5.1C10.6,5.7,7.1,7.4,4.2,9.8
										c4.8,1.3,10.2-2.2,14.3,0.3c-1.9,1-4.1,1.9-6.1,2.9c2.9,0,5.1,2.5,6.1,5.1c1.6,3.2,0,6.1,1,9.9"/>
								</g>
								<g id="Group_11257" transform="translate(0 17.352)">
									<path id="Path_16998" class="st26" d="M39.9,10.3C38,3,31-2.1,23.6-2.7S9,0.1,4.2,5.2C-0.9,10.7-3.8,18-4.7,25
										c1.6-0.8,3.1-2,4.1-3.5C4.5,14.8,11.5,8.7,19.5,7.2c-1.9,3.6-3.4,7.5-4.5,11.5c2.6-4.4,6.2-8.3,10.5-11.2
										c-1.3,3.2-2.9,5.7-4.1,8.9c4.8-5.1,10.2-4.8,17.2-4.8"/>
								</g>
							</g>
						</g>
					</g>
				</g>
			</g>
			<g id="Group_11262" transform="translate(74.994 177.634)" class="st27">
				<path id="Path_17000" class="st20" d="M5.2,41.8c-5.1,7-5.1,13.4-9.9,19.8c1.3-7,1.3-13.4,3.2-20.7c1.7-2.5,3.5-5,5.4-7.3
					c2.2,1.3,5.1,1,8.3,1c5.4-16.9,7.3-19.1,17.2-33.8c0.8-1.2,1.6-2.4,2.5-3.5C24,14.7,19.5,30,15.4,45
					C10.9,43.4,9.3,43.4,5.2,41.8z"/>
			</g>
			<g id="Group_11263" transform="translate(71.171 323.229)">
				<path id="Path_17001" class="st16" d="M3.3-2.2c5.1,4.8,10.5,9.9,15.3,14.7c0.4,0.3,0.6,0.8,0.6,1.3c0,0.3-0.3,0.6-0.3,1
					c-3.5,5.7-7.3,11.2-11.5,16.9c-0.3,0.3-0.6,0.6-1,0.6c-0.5,0-1-0.2-1.3-0.6c-3.2-3.8-5.9-7.9-8-12.4c-0.7-0.8-1.1-1.8-1.3-2.9
					c-0.5-1.4-0.7-2.9-0.6-4.5C-4.8,7-4.6,2.1-4.1-2.8"/>
			</g>
			<g id="Group_11265" transform="translate(78.669 329.647)">
				<g id="Group_11264">
					<path id="Path_17002" class="st28" d="M17.1-2.5C9.5,8.6,2.5,20.1-4.6,31.9c-0.3,0.4-0.1,1,0.3,1.3s1,0.1,1.3-0.3c0,0,0,0,0,0
						c8.1-11,15-22.7,20.7-35c0.1-0.2,0.1-0.4-0.1-0.5c-0.2-0.1-0.4-0.1-0.5,0.1C17.1-2.6,17.1-2.6,17.1-2.5L17.1-2.5z"/>
				</g>
			</g>
			<g id="Group_11266" transform="translate(137.437 360.823)">
				<path id="Path_17003" class="st24" d="M-4.7,49.1v-1.9c0-1.6,0.2-3.2,0.6-4.8c2.9-15,8-45.2,8-45.2s0.3,40.5-1.3,53.2
					c-1,7-1.3,17.5-1.3,27.4C-0.6,68.2-2.8,59-4.7,49.1z"/>
			</g>
			<g id="Group_11267" transform="translate(78.767 581.924)">
				<path id="Path_17004" class="st29" d="M18,10.3c-8,0-15.6,0-22.3-4.5c-0.6-2.2-0.3-5.7,0-8.6c3.2,1.3,16.2,5.7,24.2,5.4
					C19.2,5.5,18.6,8,18,10.3z"/>
			</g>
			<g id="Group_11268" transform="translate(154.959 586.703)">
				<path id="Path_17005" class="st29" d="M18.2,6.8C10.6,8,2.6,8.4-4.7,5.2v-8c3.1,0.7,6.1,1.2,9.2,1.6c4.6,1.1,9.4,1.2,14,0.3
					C19.1,1.6,19,4.3,18.2,6.8z"/>
			</g>
			<g id="Group_11274" transform="translate(32.303 113.203)">
				<g id="Group_11269" transform="translate(24.531 66.024)">
					<path id="Path_17006" class="st30" d="M34.2,20.1C23.6,36.1,12.2,51.7,0.4,67c-1.3,1.6-3.5,3.2-4.8,1.3c-0.2-0.5-0.3-1-0.3-1.6
						c0.4-4.4,1.5-8.7,3.2-12.7C5.6,34.5,13.9,15.6,23.3-2.8"/>
				</g>
				<g id="Group_11270" transform="translate(0 39.9)">
					<path id="Path_17007" class="st16" d="M44.4,174.3c-4.5-32.8-15-80.3-15-80.3s19.4-44.9,32.5-62.4L34.5-2.8
						C20.1,21.4-4.7,79.7-4.7,89.9c0,9.9,22,62.4,40.1,89.8"/>
				</g>
				<g id="Group_11271" transform="translate(23.179 74.626)">
					<path id="Path_17008" class="st31" d="M28.2,13.8c-3,5.1-5.6,10.5-8,15.9c-3-1-5.7-2.6-8-4.8c-4.5-3.5-8.9-7-12.4-11.8
						C-3.7,8.7-5.6,2.6-4.3-2.8C7.5-0.1,18.7,4.8,28.8,11.5L28.2,13.8z"/>
				</g>
				<g id="Group_11272" transform="translate(20.39 5.174)">
					<path id="Path_17009" class="st17" d="M44-2.8C36.6-1,29.9,2.8,24.6,8.4c-8,8.3-22,43.3-29.3,58.6c3.5,8.3,5.4,9.9,10.5,15
						c7.9,7,17.8,11.3,28.4,12.1c4.5-13.7,19.4-37.9,19.4-37.9"/>
				</g>
				<g id="Group_11273" transform="translate(53.523)">
					<path id="Path_17010" class="st13" d="M-4.7,2.1c1.6-1.9,5.4-5.4,8-4.8c3.6,0.7,7,2.2,9.9,4.5C25.6,11,27.5,28.2,25.9,42.2
						c-0.9,7.4-2.7,14.7-5.4,21.7c-1.1,2.8-2.4,5.6-3.8,8.3c-2.2,3.5-7,7.3-8,10.8c6.1-16.2,7-45.6,0.6-64.4C6.4,11,0.1,5.9-4.7,2.1
						z"/>
				</g>
			</g>
			<g id="Group_11275" transform="translate(158.464 101.896)">
				<path id="Path_17011" class="st13" d="M-4.7-0.7c5.4,4.5,11.5,8.3,15.9,14c4.5,5.7,8.3,11.9,11.5,18.5
					c6.2,13.1,10.2,27.1,11.8,41.4c1.6-15.6,3.5-31.5-1.3-46.8C31,18.6,26.6,11.7,20.5,6.4C16.3,2.5,5.5-5.4-0.9-1.9"/>
			</g>
			<g id="Group_11277" transform="translate(142.201 40.257)">
				<g id="Group_11276" transform="translate(0)">
					<path id="Path_17012" class="st19" d="M3.3-2.7C0.8-1.6-1.3,0.3-2.8,2.7C-4.1,4.6-5.3,7.8-4.4,10c0,0.3,0.6,0.3,1,0
						c1-2.2,1-4.5,2.2-6.7c1.4-2.3,3.4-4.1,5.7-5.4C3.9-2.1,3.6-3.1,3.3-2.7L3.3-2.7z"/>
				</g>
			</g>
			<g id="Group_11280" transform="translate(151.036 49.999)">
				<g id="Group_11278">
					<path id="Path_17013" class="st19" d="M-1.1-2.3C0.8-1,2.4,1.2,1.1,3.5c-0.4,0.9-1.4,1.3-2.2,1c-1.3-0.6-1.6-1.6-2.5-2.5
						C-6.2-0.4-3.7-4.2-1.1-2.3z"/>
				</g>
				<g id="Group_11279" transform="translate(2.813 1.708)">
					<path id="Path_17014" class="st2" d="M-3.6-2.7c0.6,0.3,1,1,0.6,1.3c0,0.3-0.3,0.3-0.6,0.3s-0.3-0.3-0.6-0.6
						C-5.2-2.4-4.6-3-3.6-2.7L-3.6-2.7z"/>
				</g>
			</g>
			<g id="Group_11282" transform="translate(126.834 66.717)">
				<g id="Group_11281">
					<path id="Path_17015" class="st31" d="M-4.3-0.8c0-0.3,2.2-0.6,2.5-0.3s0.3,0.6,0.3,1.3C-1.5,0.8-1.4,1.4-1.1,2
						c0.5,1.1,1.4,2,2.5,2.5c1,0.6,1.9,1,2.9,0.3c0.9-0.4,1.4-1.3,1.3-2.2C5.5,2.3,5.1,2.1,4.8,2.2C4.5,2.3,4.4,2.4,4.3,2.7
						C3.7,4.3,1.1,3,0.8,2c-1-1.3-0.3-1.9-0.6-3.2c-0.3-1-1-1.3-1.3-1.3c-1.6-0.6-3.5-0.6-3.5,1.6C-4.9-0.2-4.3-0.2-4.3-0.8
						L-4.3-0.8z"/>
				</g>
			</g>
			<g id="Group_11283" transform="translate(131.065 75.686)">
				<path id="Path_17016" class="st31" d="M-4.7-0.3c2.5,0.3,6.7,0.3,8-2.5c0.1,1.2-0.3,2.5-1,3.5C1.7,1.4,0.9,1.8,0.1,2
					c-1.3,0.6-3.2,1-4.1,0.3"/>
			</g>
			<g id="Group_11284" transform="translate(138.074 89.334)">
				<path id="Path_17017" class="st31" d="M5.2-2.1c-2.5,0.3-9.6-1-9.9-0.6c1,1.3,1.9,1.6,3.5,2.2c1.9,1,4.5,1.3,6.4,1.9"/>
			</g>
			<g id="Group_11289" transform="translate(155.915 61.668)">
				<g id="Group_11285">
					<path id="Path_17018" class="st32" d="M11.9-2.8c2.5,2.5,3.5,8,2.5,10.5c-1.3,2.5-3.8,4.1-7.3,4.1c-3.8,0-8-1.6-11.8-3.5
						C1.3,5.4,6.9,1.7,11.9-2.8z"/>
				</g>
				<g id="Group_11288">
					<g id="Group_11287">
						<g>
							<defs>
								<path id="SVGID_3_" d="M11.9-2.8c2.5,2.5,3.5,8,2.5,10.5c-1.3,2.5-3.8,4.1-7.3,4.1c-3.8,0-8-1.6-11.8-3.5
									C1.3,5.4,6.9,1.7,11.9-2.8z"/>
							</defs>
							<clipPath id="SVGID_4_">
								<use xlink:href="#SVGID_3_"  style="overflow:visible;"/>
							</clipPath>
							<g id="Group_11286" class="st33">
								<path id="Path_17019" class="st34" d="M-1.8,14.7c-0.3-2.2,1-3.8,2.5-5.4c1.7-1.2,3.7-2.1,5.7-2.5c1.3-0.4,2.7-0.6,4.1-0.6
									c1.5,0.3,2.9,1,4.1,1.9c0.6,1,1.3,1.6,1.3,2.5c0.9,3.3-0.5,6.9-3.5,8.6c-3.2,1.6-8,1.3-11.8-0.6"/>
							</g>
						</g>
					</g>
				</g>
			</g>
			<path id="Path_17021" class="st16" d="M300.3,58.2"/>
			<path id="Path_17022" class="st16" d="M324.8,38.8c1-1.9,2.9-3.8,5.1-7s1.3-5.1,0.3-5.7c-1.3-0.6-6.1,4.8-9.6,7.3
				c-3.3,3.4-6.2,7.3-8.6,11.5c-2.2-1.3-5.4-2.2-6.4-1.9c-2.5,0.6-7.3,8.9-8,13.7c-0.6,3.5,1.3,13.7,1.3,13.7l-2.5,8.6
				c0,0,8,12.4,10.5,3.8c2.5-8.3,5.4-10.5,9.6-11.5c3.5-1,13.1-8.9,13.4-13.4c-0.2-1.4-0.8-2.6-1.9-3.5l0,0c0-3.2-2.9-3.5-3.5-3.8
				c-0.2-1.8-1.7-3.3-3.5-3.5C320.7,45.5,323.9,40.7,324.8,38.8z"/>
			<g id="Group_11291" transform="translate(311.387 47.601)">
				<g id="Group_11290">
					<path id="Path_17023" class="st35" d="M0.4-2.4c1.3,0.8,2.5,1.7,3.5,2.9C4.2,0.8,5.2,1.7,5.2,2c0,1.9-1.3,1.9-2.5,1.6
						C1.3,3.6-0.9,2.3-2.5,3c-0.2,0-0.3,0.1-0.3,0.3c0,0,0,0,0,0c0,1.9-1,3.5-1.9,5.1c0,0.2,0.1,0.3,0.3,0.3c0,0,0,0,0,0
						c1-0.8,1.7-1.9,1.9-3.2c0-0.3,0-1.9,0.3-2.2c0.3-0.6,4.8,1,5.7,0.6c1.1-0.2,1.8-1.2,1.7-2.2c0-0.1,0-0.2-0.1-0.3
						C4.8-0.2,2-1.8,0.4-2.4C0.1-3.1,0.1-2.7,0.4-2.4L0.4-2.4z"/>
				</g>
			</g>
			<g id="Group_11293" transform="translate(313.824 54.022)">
				<g id="Group_11292">
					<path id="Path_17024" class="st35" d="M10.4-2.8C9.4-0.9,7.8,2,5.9,2.9C5,3.3,4,3.3,3.1,3.6c-1.3,0.3-3.5,1-4.8,0.6
						s-2.5-1-2.9-2.2s2.2-2.9,3.5-3.2c0.3,0,0-0.3,0-0.3C-3-1.2-5.2,0.4-4.6,2.6c0.3,1.9,2.2,1.9,3.5,1.6c2.2-0.3,4.8-0.3,7-1.3
						C8.1,2.3,9.7-0.6,10.4-2.8L10.4-2.8z"/>
				</g>
			</g>
			<g id="Group_11295" transform="translate(319.75 57.606)">
				<g id="Group_11294">
					<path id="Path_17025" class="st35" d="M8-2.6C7,0,5.1,2.5,2.2,3.2C0.1,3.9-2.2,4.1-4.5,3.8c-0.3,0-0.3,0.3,0,0.3
						c2.6,0.6,5.2,0.4,7.6-0.6C5.7,2.9,7.6,0,8-2.6C8.3-2.9,8-2.9,8-2.6L8-2.6z"/>
				</g>
			</g>
			<g id="Group_11297" transform="translate(324.307 67.261)">
				<g id="Group_11296">
					<path id="Path_17026" class="st35" d="M1.2-2.7C-0.7-2-2.3-2.3-4.6-2.3c0,0-0.3,0.3,0,0.3C-3-1.4-0.7-2,1.2-2.7L1.2-2.7z"/>
				</g>
			</g>
		</g>
	</g>
</g>
<g id="Group_10805" transform="translate(0)">
	<g id="Group_10776">
		<path id="Path_16701" class="st3" d="M818.3,292.1v795.5c0,36.5-28,66.1-62.8,66.1c-0.1,0-0.1,0-0.2,0H445
			c-34.7,0-62.9-29.5-62.9-66c0-0.1,0-0.1,0-0.2V292.1c0-36.5,28.1-66.1,62.8-66.1c0.1,0,0.1,0,0.2,0h310.4
			C790.2,226.3,818.3,255.9,818.3,292.1z"/>
		<path id="Path_16702" class="st3" d="M818.3,292.1v11.1H382.4v-11.1c0-36.5,28.1-66.1,62.8-66.1c0.1,0,0.1,0,0.2,0h310.1
			C790.2,226.3,818.3,255.9,818.3,292.1z"/>
		<path id="Path_16703" class="st3" d="M818.3,1076.6v11.1c0,36.5-28.1,66.1-62.8,66.1c-0.1,0-0.1,0-0.2,0H445.3
			c-34.7,0-62.9-29.5-62.9-66c0-0.1,0-0.1,0-0.2v-11.1H818.3z"/>
		<path id="Path_16704" class="st36" d="M823.5,589.8h-5.1V415h5.1c3.6,0.1,6.6,3.2,6.7,7v161.1c-0.1,3.8-3,6.8-6.6,6.7
			C823.5,589.8,823.5,589.8,823.5,589.8z"/>
		<path id="Path_16705" class="st36" d="M382.4,497.2h-4.8c-3.3-0.1-6-2.9-6.1-6.4v-72.2c0.1-3.5,2.8-6.3,6.1-6.4h4.8V497.2z"/>
		<path id="Path_16706" class="st36" d="M382.4,589.8h-4.5c-2.9,0.1-5.3-2.2-5.4-5.2c0-0.2,0-0.3,0-0.5v-41c-0.1-3,2.1-5.6,5-5.7
			c0.2,0,0.3,0,0.5,0h4.5V589.8z"/>
		<ellipse id="Ellipse_3721" class="st1" cx="525.2" cy="264.6" rx="12.5" ry="13.1"/>
		<ellipse id="Ellipse_3722" class="st1" cx="558.7" cy="264.6" rx="6.1" ry="6.4"/>
		<path id="Path_16707" class="st1" d="M690.3,272.6H583.9c-2.3,0-4.1-2-4.2-4.4v-7c0-2.4,1.9-4.3,4.2-4.4h106.4
			c2.3,0,4.1,2,4.2,4.4v7C694.4,270.7,692.6,272.6,690.3,272.6z"/>
		<path id="Path_16873" class="st1" d="M600.2,1091.3c13.2,0,24,11.3,24,25.2s-10.7,25.2-24,25.2c-13.2,0-24-11.3-24-25.2
			S587,1091.3,600.2,1091.3C600.2,1091.3,600.2,1091.3,600.2,1091.3z"/>
		<g>
			<defs>
				<rect id="Rectangle_4386" x="401" y="302.2" width="401.9" height="773.4"/>
			</defs>
			<clipPath id="Rectangle_4386_1_">
				<use xlink:href="#Rectangle_4386"  style="overflow:visible;"/>
			</clipPath>
			<g transform="matrix(1 0 0 1 0 0)" style="clip-path:url(#Rectangle_4386_1_);">
				
					<image style="overflow:visible;" width="563" height="1214" xlink:href="../Downloads/iPhone X-XS-11 Pro  42.png"  transform="matrix(0.7029 0 0 0.6371 403.2769 300.8439)">
				</image>
			</g>
		</g>
	</g>
	<g id="Group_10804" transform="translate(21.953 78.916)">
		<path id="Path_16747" class="st37" d="M643.2,224.3L381.3,663.2V418.6l116.1-194.4H643.2z"/>
		<path id="Path_16748" class="st37" d="M753.5,224.3L381.3,847.8V734.8L686,224.3H753.5z"/>
		<path id="Path_16749" class="st37" d="M777,479.5v113.1L536.9,995h-67.2L777,479.5z"/>
		<path id="Path_16874" class="st37" d="M753.5,224.3L381.3,847.8V734.8L686,224.3H753.5z"/>
	</g>
</g>
<g id="Group_10835">
	<g id="Group_10832" transform="translate(32.843)">
		<path id="Path_16805" class="st3" d="M1016.1,893.3c-17.5-17.8-30.5,4.8-28.5,27.4c1.7,21.3,20.2,94.7,16.5,125.6h7.2
			C1028.8,1006.9,1038.7,916.3,1016.1,893.3z"/>
		<path id="Path_16806" class="st2" d="M1008.9,1046.4c16.8-62.4-4.5-148.6-4.5-148.9c0-0.7-0.7-0.7-1-0.7c-0.7,0-0.7,0.7-0.7,1
			c0,0.3,21.3,86.5,4.5,148.6L1008.9,1046.4z"/>
	</g>
	<g id="Group_10833" transform="translate(0 43.119)">
		<path id="Path_16807" class="st36" d="M1006.4,889.3c-18.2-9.6-23,11.3-15.8,29.2c5.8,14.4,31.9,57.6,41.9,84.7h9.3
			C1042.4,965.5,1027.6,901,1006.4,889.3z"/>
		<path id="Path_16808" class="st2" d="M1038.3,1003.2c-6.2-51.5-40.5-107.4-40.5-107.7c-0.3-0.3-0.7-0.7-1-0.3
			c-0.3,0.3-0.7,0.7-0.3,1c0,0.3,34.3,55.9,40.5,107.1H1038.3z"/>
	</g>
	<g id="Group_10834" transform="translate(56.389 68.458)">
		<path id="Path_16809" class="st1" d="M1027.2,888.7c17.8-7.9,20.6,12,12.7,28.1c-5.1,10.6-24.7,38.1-37.7,61.4h-14.8
			C992.5,942.9,1009,896.6,1027.2,888.7z"/>
		<path id="Path_16810" class="st2" d="M992.9,977.9c12.7-42.9,41.9-83,41.9-83c0.3-0.3,0.7-0.7,1-0.3c0.3,0.3,0.7,0.7,0.3,1
			c0,0.3-28.8,40.1-41.5,82L992.9,977.9L992.9,977.9z"/>
	</g>
</g>
<g id="Group_10837" transform="translate(22.384 148.815)">
	<g id="Group_10836" transform="translate(0 5.49)">
		<path id="Path_16811" class="st3" d="M999.4,886.9c0,0-1.7,2.7,2.1,4.8c4.1,2.1,3.8,4.8-0.7,7.9c-4.5,3.4-16.5,7.9-12.7,26.4
			c3.4,18.5,10.3,61.8,10.3,61.8s2.1,9.3,10.6,9.3h27.4c7.9,0,10.6-9.3,10.6-9.3s6.5-43.2,10.3-61.8c3.4-18.5-8.2-23.3-12.7-26.4
			c-4.5-3.4-4.5-5.8-0.7-7.9c4.1-2.1,2.1-4.8,2.1-4.8H999.4z"/>
		<path id="Path_16812" class="st36" d="M999.4,886.9c0,0-1.7,2.7,2.1,4.8c4.1,2.1,3.8,4.8-0.7,7.9c-4.5,3.4-16.5,7.9-12.7,26.4
			c3.4,18.5,10.3,61.8,10.3,61.8s2.1,9.3,10.6,9.3h13.4c7.9,0,10.6-9.3,10.6-9.3s6.5-43.2,10.3-61.8c3.4-18.5-8.2-23.3-12.7-26.4
			c-4.5-3.4-4.5-5.8-0.7-7.9c4.1-2.1,2.1-4.8,2.1-4.8H999.4L999.4,886.9z"/>
	</g>
	<path id="Path_16813" class="st36" d="M1000.5,894.5h45.6c2.1,0,3.8-1.7,3.8-3.8l0,0c0-2.1-1.7-3.8-3.8-3.8h-45.6
		c-2.1,0-3.8,1.7-3.8,3.8l0,0C996.7,892.8,998.4,894.4,1000.5,894.5z"/>
	<path id="Path_16814" class="st3" d="M1000.1,891.7h34.7c0.9-0.1,1.7-0.8,1.7-1.7l0,0c-0.1-0.9-0.8-1.7-1.7-1.7h-34.7
		c-0.9,0.1-1.7,0.8-1.7,1.7l0,0C998.5,890.9,999.2,891.7,1000.1,891.7z"/>
</g>
<path id="Path_17177" class="st38" d="M1097.7,1155.9H1.3c-0.7,0-1.3-0.6-1.3-1.3l0,0c0-0.7,0.6-1.3,1.3-1.3h1096.4
	c0.7,0,1.3,0.6,1.3,1.3l0,0c0.1,0.7-0.4,1.3-1.1,1.3C1097.9,1155.9,1097.8,1155.9,1097.7,1155.9z"/>
</svg>
