<?xml version="1.0" encoding="utf-8"?>
<!-- Generator: Adobe Illustrator 22.1.0, SVG Export Plug-In . SVG Version: 6.00 Build 0)  -->
<svg version="1.1" id="adf35c87-b782-4e77-99e1-73b1e980183a"
	 xmlns="http://www.w3.org/2000/svg" xmlns:xlink="http://www.w3.org/1999/xlink" x="0px" y="0px" viewBox="0 0 1130 814.8"
	 style="enable-background:new 0 0 1130 814.8;" xml:space="preserve">
<style type="text/css">
	.st0{opacity:0.15;fill:#74B4CE;}
	.st1{fill:#115687;}
	.st2{fill:#74B4CE;}
	.st3{fill:#E6E8EC;}
	.st4{fill:#1D6A99;}
	.st5{opacity:0.1;enable-background:new    ;}
	.st6{fill:url(#SVGID_1_);}
	.st7{fill:#EE8E9E;}
	.st8{fill:#65617D;}
	.st9{fill:#3F3D56;}
	.st10{opacity:5.000000e-02;enable-background:new    ;}
	.st11{fill:#E8EAF2;}
	.st12{fill:#303D5C;}
	.st13{fill:#3B8AE0;}
	.st14{opacity:0.1;fill:#3F3D56;enable-background:new    ;}
	.st15{fill:url(#SVGID_2_);}
	.st16{opacity:0.1;}
	.st17{opacity:0.9;fill:#115687;enable-background:new    ;}
	.st18{fill:#19A9C9;}
</style>
<title>email campaign</title>
<path class="st0" d="M654.3,133.5c-70.7-2.4-138-25.3-202.2-50.2S324.1,30.6,255.2,17.4c-44.4-8.5-95.1-9.7-130.8,14.1
	C90,54.3,78.8,93.9,72.9,130.5c-4.5,27.6-7.1,56.6,5.2,82.4c8.6,17.9,23.7,33,34.2,50.2c36.5,59.7,10.7,133.4-28.9,191.8
	c-18.5,27.4-40.1,53.5-54.4,82.6S8,600,20.5,629.7c12.4,29.5,42,51.6,74.1,67.1c65.2,31.6,142,40.7,216.8,45.8
	c165.8,11.3,332.4,6.4,498.6,1.5c61.5-1.8,123.3-3.7,183.8-13.2c33.6-5.3,68.3-13.7,92.7-33.9c31-25.7,38.6-69.2,17.9-101.4
	c-34.8-54-131-67.4-155.4-125.4c-13.4-31.9,0.4-67.5,19.8-97.1c41.7-63.5,111.7-119.2,115.4-191.8c2.5-49.9-31.1-99.8-83.1-123.4
	c-54.5-24.7-130.1-21.6-170.3,19.3C789.5,119.4,716.7,135.6,654.3,133.5z"/>
<g>
	<path class="st1" d="M722.6,243.1h5.2c1.2,0,2.2,1,2.2,2.2v75.3c0,1.2-1,2.2-2.2,2.2h-5.2c-1.2,0-2.2-1-2.2-2.2v-75.3
		C720.3,244.1,721.3,243.1,722.6,243.1z"/>
	<path class="st1" d="M401.1,180.6h1c1.2,0,2.2,1,2.2,2.2v21.8c0,1.2-1,2.2-2.2,2.2h-1c-1.2,0-2.2-1-2.2-2.2v-21.8
		C398.9,181.6,399.9,180.6,401.1,180.6z"/>
	<path class="st1" d="M400.9,228.7h1.6c1.2,0,2.2,1,2.2,2.2v41.2c0,1.2-1,2.2-2.2,2.2h-1.6c-1.2,0-2.2-1-2.2-2.2v-41.2
		C398.7,229.7,399.7,228.7,400.9,228.7z"/>
	<path class="st1" d="M401,290.3h1.4c1.2,0,2.2,1,2.2,2.2v41.6c0,1.2-1,2.2-2.2,2.2H401c-1.2,0-2.2-1-2.2-2.2v-41.6
		C398.8,291.3,399.8,290.3,401,290.3z"/>
	<path class="st1" d="M440,93.9h247.5c21,0,38,17,38,38v581.6c0,21-17,38-38,38H440c-21,0-38-17-38-38V131.9
		C402,110.9,419,93.9,440,93.9z"/>
	<path class="st1" d="M536.3,113.5H574c2.1,0,3.8,1.7,3.8,3.8v1.6c0,2.1-1.7,3.8-3.8,3.8h-37.6c-2.1,0-3.8-1.7-3.8-3.8v-1.6
		C532.5,115.2,534.2,113.5,536.3,113.5z"/>
	<circle class="st1" cx="589.8" cy="118.1" r="5.2"/>
</g>
<path class="st2" d="M679.9,111h-37.1v4.5c0,11.7-9.5,21.2-21.2,21.2c0,0,0,0,0,0H503.6c-11.7,0-21.2-9.5-21.2-21.2V111h-34.7
	c-14.2,0-25.7,11.5-25.7,25.7l0,0v572c0,14.2,11.5,25.7,25.7,25.7h232.2c14.2,0,25.7-11.5,25.7-25.7v-572
	C705.6,122.5,694.1,111,679.9,111z"/>
<rect x="422.2" y="154.8" class="st3" width="283.9" height="26.2"/>
<rect x="430.9" y="160.3" class="st4" width="24" height="2.2"/>
<rect x="430.9" y="166.9" class="st4" width="24" height="2.2"/>
<rect x="430.9" y="173.4" class="st4" width="24" height="2.2"/>
<path class="st4" d="M686.9,170.5H686l-0.3-0.3c1.1-1.3,1.7-3,1.7-4.8c0-4-3.3-7.2-7.3-7.2c-4,0-7.2,3.3-7.2,7.3
	c0,4,3.3,7.2,7.3,7.2c1.7,0,3.4-0.6,4.8-1.7l0.3,0.3v0.9l5.6,5.6l1.7-1.7L686.9,170.5z M680.2,170.5c-2.8,0-5.1-2.2-5.1-5
	c0-2.8,2.2-5.1,5-5.1s5.1,2.2,5.1,5c0,0,0,0,0,0C685.3,168.2,683,170.5,680.2,170.5C680.2,170.5,680.2,170.5,680.2,170.5z"/>
<circle class="st3" cx="442.9" cy="229.1" r="12"/>
<rect x="480.6" y="241.1" class="st3" width="167" height="6.6"/>
<rect x="481.1" y="255.3" class="st3" width="167" height="6.6"/>
<rect x="481.7" y="269.5" class="st3" width="167" height="6.6"/>
<circle class="st3" cx="442.9" cy="311" r="12"/>
<rect x="480.6" y="323" class="st3" width="167" height="6.6"/>
<rect x="481.1" y="337.2" class="st3" width="167" height="6.6"/>
<rect x="481.7" y="351.4" class="st3" width="167" height="6.6"/>
<circle class="st3" cx="442.9" cy="392.8" r="12"/>
<rect x="480.6" y="404.9" class="st3" width="167" height="6.6"/>
<rect x="481.1" y="419" class="st3" width="167" height="6.6"/>
<rect x="481.7" y="433.2" class="st3" width="167" height="6.6"/>
<circle class="st3" cx="442.9" cy="474.7" r="12"/>
<rect x="480.6" y="486.7" class="st3" width="167" height="6.6"/>
<rect x="481.1" y="500.9" class="st3" width="167" height="6.6"/>
<rect x="481.7" y="515.1" class="st3" width="167" height="6.6"/>
<circle class="st3" cx="442.9" cy="556.6" r="12"/>
<rect x="480.6" y="568.6" class="st3" width="167" height="6.6"/>
<rect x="481.1" y="582.8" class="st3" width="167" height="6.6"/>
<rect x="481.7" y="597" class="st3" width="167" height="6.6"/>
<circle class="st3" cx="442.9" cy="638.5" r="12"/>
<rect x="480.6" y="650.5" class="st3" width="167" height="6.6"/>
<rect x="481.1" y="664.7" class="st3" width="167" height="6.6"/>
<rect x="481.7" y="678.9" class="st3" width="167" height="6.6"/>
<circle class="st5" cx="648.2" cy="685.4" r="30.6"/>
<circle class="st4" cx="648.2" cy="685.4" r="27.3"/>
<path class="st1" d="M320.3,123l-53.4,28.8c-0.5,0.3-0.7,1-0.4,1.5c0.1,0.2,0.3,0.3,0.5,0.4l9.1,3.4c0.5,0.2,1,0.6,1.2,1.1l7.1,14.6
	c0.1,0.6,1.3,0.8,1.3,0.2l-1.1-12c0.1-0.9,0.4-1.7,1-2.4l27.7-27.1c0.2-0.2,0.4-0.2,0.6-0.2c0.3,0.1,0.5,0.4,0.4,0.8
	c0,0.1-0.1,0.1-0.1,0.2l-23.9,29.3c-0.5,0.7-0.9,1.5-1,2.4l-1.4,10.4c0.1,0.9,0.8,1.2,1.4,0.4l5.1-6c0.3-0.5,1-0.6,1.5-0.3
	c0,0,0,0,0,0l13.2,9.7c0.5,0.4,1.1,0.2,1.5-0.2c0.1-0.1,0.2-0.3,0.2-0.4l10.9-53.3c0.1-0.6-0.2-1.2-0.8-1.3
	C320.8,122.9,320.5,122.9,320.3,123L320.3,123z"/>
<path class="st1" d="M884,134.4l-53.4,28.9c-0.5,0.3-0.7,1-0.4,1.5c0.1,0.2,0.3,0.3,0.5,0.4l9.1,3.4c0.5,0.2,1,0.6,1.2,1.1l7.1,14.6
	c0.1,0.6,1.3,0.8,1.3,0.2l-1.1-12c0.1-0.9,0.4-1.7,1-2.4l27.7-27.1c0.2-0.2,0.4-0.2,0.6-0.2c0.3,0.1,0.5,0.4,0.4,0.8
	c0,0.1-0.1,0.1-0.1,0.2L854,172.9c-0.5,0.7-0.9,1.5-1,2.4l-1.4,10.4c0.1,0.9,0.8,1.3,1.4,0.4l5.1-6c0.3-0.5,1-0.6,1.5-0.3
	c0,0,0,0,0,0l13.2,9.6c0.5,0.3,1.1,0.3,1.5-0.2c0.1-0.1,0.2-0.3,0.2-0.4l10.9-53.3c0.1-0.6-0.2-1.2-0.8-1.3
	C884.4,134.1,884.1,134.2,884,134.4L884,134.4z"/>
<path class="st1" d="M554.5,28.7l-36.5,19.7c-0.4,0.2-0.5,0.7-0.3,1c0.1,0.1,0.2,0.3,0.4,0.3l6.2,2.3c0.4,0.1,0.7,0.4,0.8,0.8
	l4.9,9.9c0.1,0.4,0.9,0.6,0.9,0.1l-0.7-8.2c0-0.6,0.3-1.2,0.7-1.7l18.9-18.5c0.1-0.1,0.3-0.1,0.4-0.1c0.2,0.1,0.4,0.3,0.3,0.5
	c0,0.1,0,0.1-0.1,0.2L534.1,55c-0.3,0.5-0.6,1-0.6,1.6l-1,7.1c0.1,0.6,0.6,0.9,1,0.3l3.5-4.1c0.2-0.3,0.7-0.4,1-0.2l9,6.6
	c0.3,0.2,0.8,0.2,1-0.2c0.1-0.1,0.1-0.2,0.1-0.3l7.4-36.4c0.1-0.4-0.1-0.8-0.5-0.9C554.9,28.6,554.7,28.6,554.5,28.7L554.5,28.7z"/>
<path class="st1" d="M762,10.1l-36.5,19.7c-0.4,0.2-0.5,0.7-0.3,1c0.1,0.1,0.2,0.3,0.3,0.3l6.2,2.3c0.4,0.1,0.7,0.4,0.8,0.8l4.8,9.9
	c0.1,0.4,0.9,0.6,0.9,0.1l-0.7-8.2c0-0.6,0.3-1.2,0.7-1.7l18.9-18.5c0.1-0.1,0.3-0.1,0.4-0.1c0.2,0.1,0.4,0.3,0.3,0.5
	c0,0.1,0,0.1-0.1,0.2l-16.3,19.9c-0.3,0.5-0.6,1-0.6,1.6l-1,7.1c0.1,0.6,0.6,0.8,1,0.3l3.5-4.1c0.2-0.3,0.7-0.4,1-0.2c0,0,0,0,0,0
	l9.1,6.6c0.3,0.2,0.8,0.2,1-0.1c0.1-0.1,0.1-0.2,0.1-0.3l7.4-36.4c0.1-0.4-0.1-0.8-0.5-0.9C762.3,10,762.1,10,762,10.1L762,10.1z"/>
<path class="st1" d="M900.6,263.5L793,254.6c-1.1-0.1-2,0.7-2.1,1.7c0,0.5,0.1,0.9,0.3,1.3l10.2,14c0.6,0.8,0.9,1.8,0.7,2.8
	l-3.6,28.6c-0.4,1.1,1.2,2.5,1.8,1.5l10.1-19c1-1.3,2.3-2.2,3.8-2.7l67.6-13.5c0.4-0.1,0.8,0,1.1,0.3c0.4,0.5,0.4,1.2,0,1.6
	c-0.1,0.1-0.3,0.2-0.4,0.3l-63.9,20.3c-1.4,0.6-2.7,1.5-3.7,2.7l-12.2,14.1c-0.7,1.5,0,2.7,1.7,2l13.5-4c1-0.4,2.1,0.1,2.5,1.1
	l10.3,27.3c0.4,1,1.6,1.5,2.5,1.1c0.2-0.1,0.4-0.2,0.6-0.4l68.1-68.9c0.8-0.8,0.7-2,0-2.8C901.4,263.7,901,263.5,900.6,263.5z"/>
<linearGradient id="SVGID_1_" gradientUnits="userSpaceOnUse" x1="1217.1962" y1="-26.7586" x2="1217.1962" y2="458.1441" gradientTransform="matrix(-1 0 0 -1 1923.16 771.42)">
	<stop  offset="0" style="stop-color:#808080;stop-opacity:0.25"/>
	<stop  offset="0.54" style="stop-color:#808080;stop-opacity:0.12"/>
	<stop  offset="1" style="stop-color:#808080;stop-opacity:0.1"/>
</linearGradient>
<path class="st6" d="M610.5,372c1,1.4,2.3,2.7,3.7,3.7c0.9,0.8,1.8,1.5,2.8,2.2c0.3,0.2,0.6,0.4,0.8,0.6c0,0-0.1,0.1-0.1,0.2
	c-0.2,0.4-0.3,0.9-0.3,1.4c0.2,0.6,0.6,1.1,1,1.4c2.3,2.1,3.8,4.9,4.4,7.9c0.3,1.8-0.9,3.7-0.8,5.5c0.2,1.8,0.6,3.5,1.4,5.1
	c1.5,3.8,3.1,7.7,6,10.5c0.7,6.1,3.1,11.9,6.8,16.7c3.1,4,7.3,7.1,11.4,10c1.3,1,2.7,1.9,4.2,2.7c1.4,0.5,2.8,0.9,4.2,1.1
	c12.1,2.4,24.4,3.8,36.8,4.2c0.3,7.3,0.5,14.7,0.4,22c0.1,1.2-0.1,2.4-0.5,3.6c-0.6,1.1-1.3,2.1-2.1,3c-2.8,3.7-2.9,8.8-2.7,13.5
	c0.3,5.5,0.9,11,2,16.4c1.3,6.9,0.1,14.6,2.6,21.2c1,2.6,2,5.2,2.9,7.8c0.3,0.7,0.5,1.5,0.6,2.3c0,1.7-1.1,3.2-2,4.6
	c-1.2,2.2-1.8,4.6-1.7,7.1c0,0.3,0.1,0.6,0.2,0.8c0.3,0.4,1,0.4,1.5,0.3c2.2-0.3,4.3-0.5,6.5-0.6c-0.4,0.5-0.7,1-1.1,1.6
	c-0.5,0.9-1,1.9-1.4,2.8c-0.8,1.6-1.4,3.3-1.9,5.1c-0.1,0.3-0.1,0.5-0.2,0.8c-0.1,0.5-0.2,1.1-0.3,1.6c-0.5,3.1-0.7,6.2-0.6,9.4
	c-0.3,5.9-0.6,11.9-1.2,13.7c-0.8,2.5,0.2,6.6,1.2,10.4c0,2.7,0.5,5.3,1.4,7.8c0.1,2.8,0.4,5.5,1,8.2c3.4,19,7,38,10.7,56.9
	c0.3,1.6,0.7,3.3,1.1,4.9c1.4,5.3,3.9,10.2,7.3,14.4c3,3.8,5.5,7.9,7.6,12.2c-0.2,1-0.5,2.1-0.7,3.1c-2.1,9.1-5,18-6,27.3
	c-0.4,3.7-0.5,7.5-2,10.9c-0.7,1.7-1.8,3.4-2,5.3c-0.1,1.2,0.2,2.4,0.8,3.4c-0.3,0.2-0.5,0.4-0.7,0.6l-0.4,0.3
	c-2.8,2.2-6.5,2.7-9.9,3.5c-3.4,0.9-7.1,2.7-8.1,6.1c-0.1,0.2-0.1,0.4-0.2,0.7c-0.6,3.1,1.3,6.4,3.9,8.3c2.8,2,6.4,2.6,9.8,3
	c3.4,0.4,6.9,0.8,10,2.3c2.7,1.3,4.9,3.5,7.8,4.5l0.5,0.1c-0.6,0.4-1.3,0.8-2,1.1c-2.9,1.5-6.1,2.5-9.4,2.9
	c-3.3,0.5-7.2,0.7-8.9,3.6l0,0c-1.4,2.4-0.4,5.6,1.6,7.5c2,1.9,4.8,2.7,7.5,3.3c6.1,1.2,12.3,2,18.5,2.3l6.1,0.5
	c5.9,0.4,11.8,0.9,17.8,1c7.3,0,14.6-0.6,21.8-1.9c0.7,0,1.3-0.3,1.7-0.8c0.2-0.4,0.3-0.9,0.3-1.4c-0.2-7.4-1.1-14.8-2.8-22
	c-0.5-2.2-3.5,0.8-5.1,2.7c-0.2-1.1-0.5-2.2-0.8-3.2l1.3-0.6c1-0.4,1.8-1.1,2.4-2c0.3-0.7,0.4-1.5,0.3-2.3
	c-0.2-4.8-0.5-9.7-2.8-13.9c-1.5-2.5-3.4-4.8-5.5-6.7c-0.7-15-2.1-29.9-5.4-44.5c-1.7-7.5-3.8-15-8.1-21.3c-0.5-0.8-1.1-1.6-1.7-2.4
	c-0.5-7.2-1.3-14.3-2.6-21.4c-0.2-0.9-0.2-1.9,0-2.8c0.4-0.8,0.9-1.5,1.6-2.2c2.6-3.3,1.5-8.1,1.2-12.3c-0.4-6.1,1-12.1,2.4-18
	c1.8-7.3,3.5-14.6,5.3-21.9c0.4-2.1,1.1-4.1,1.9-6.1c1.2-2.8,3.1-5.1,4.8-7.7c4.9-7.8,7.2-16.9,6.6-26.1c1,0.4,2,0.7,3,1.1
	c0.7-6.1-1.9-13.1,0-18.8c3.2-2.3,5.7-5.4,7.5-8.9c1.4-3.2,1.9-6.9,3.4-10.1c0.9-1.8,2.1-3.5,2.6-5.4c0.8-2.9-0.2-6-0.1-9
	c0.1-6.5,4.9-12.6,3.8-19c-0.5-3.1-2.3-5.9-2.2-9c0.1-1.7,0.6-3.3,1.3-4.9c3.6-9.5,7.1-19.6,5.3-29.6c-0.5-2.6-1.3-5.1-1.2-7.7
	c0.2-3,1.6-5.9,1.2-8.8c-0.2-1.1-0.6-2.2-1.3-3.1c1.3-2,2.4-4.1,3.3-6.3c0.6-1.2,0.9-2.6,0.9-4c-0.3-1.9-1.3-3.6-2.8-4.8
	c-1.5-1.1-3.2-2.1-4.9-2.8c-0.5-0.2-1-0.6-1.4-1c-0.3-0.5-0.6-1-0.8-1.5c-1-1.7-3.1-2.2-4.7-3.2c-5.9-3.6-5.4-13-10.5-17.8
	c-3.5-3.2-8.8-3.4-12.7-0.7c-0.5,0.5-1.1,0.8-1.8,0.9c-0.7-0.1-1.3-0.5-1.7-1c-1.3-0.9-2.8-1.3-4.3-1.2c-1-3.7-1.4-7.5-1.3-11.4h0.5
	c0.6,0,1.2,0,1.8-0.2c2.6-0.8,4.1-3.5,5.2-6c0.9-2.1,1.7-4.3,2.3-6.6c0.1-0.2,0.1-0.4,0.2-0.6c5,3.5,10.8,7.2,12.2,6.4
	c2.6-1.4-11.5-11.4-11.5-11.4l0,0l0,0c1.6-1.5,2.6-4.1,2.9-6.4c0.8-4.7,1.2-9.5,0.1-14.1c-1.1-4.6-3.9-9-8-11.1
	c-1.9-1-4.1-1.6-5.5-3.1l0,0c-0.2-0.2-0.4-0.5-0.5-0.7l0,0c-0.1-0.1-0.2-0.2-0.2-0.4c-0.1-0.4-0.3-0.8-0.6-1.2
	c-0.8-0.9-2.2-0.6-3.3-0.5h-0.4h-0.3h-0.3c-4.2,0.1-8.2-2.2-12.4-2.2c-4.6,0-8.5,2.7-12.6,4.5c-0.8,0.4-1.6,0.7-2.3,1.1
	c-2.5,1.2-4.5,2.5-5.9,5.3c-0.8,0.9-1.4,2.1-1.7,3.3c-0.1,0.5-0.2,1.1-0.2,1.7c-11,10.8-11,28.5-0.2,39.5c3.5,3.5,7.9,6.1,12.7,7.4
	c0.1,0.3,0.2,0.5,0.3,0.8c0.8,2.5,1.3,5.2,1.2,7.8c0,0.2,0,0.4,0,0.6c-2.1,0.5-4.1,1.3-6,2.4c-2.4,1.4-4.2,3.6-5.1,6.2
	c-0.1,0.2-0.1,0.4-0.2,0.6c-1.5-0.5-3-0.8-4.6-0.8c-1.4,0-3,0.1-3.9,1.2c-0.4,0.4-0.6,1-0.7,1.5c-0.5,0.5-0.6,1.4-1,2
	c-1.2,2.1-4.2,1.4-6.5,2c-2.5,0.6-4.4,2.9-7,2.9c-1-0.2-2-0.2-2.9-0.1c-1,0.2-1.7,1.6-1,2.2c-1.2-0.1-2.3,0.4-2.9,1.4
	c-0.7,0.9-1.2,2-2,2.9c-0.7-1-1.9-1.4-3-1.2c-1.1,0.3-2.2,0.7-3.2,1.3c-0.4,0.2-0.9,0.4-1.4,0.5c-0.6,0-1.2,0-1.7-0.2
	c-2.7-0.4-5.6-0.1-8.1,1.1c-2.2,1.1-4.4-0.9-6.8-1c-0.9,0-1.8-0.2-2.5-0.8c-0.5-0.6-0.8-1.2-1-2c-1.1-3.2-3.8-5.6-7.1-6.3
	c1.3-4.2-0.8-8.6-4.9-10.3c0.3-2.9-0.8-5.8-3-7.7c-0.5-0.4-1.1-0.8-1.5-1.2c-0.6-0.8-1.1-1.7-1.4-2.6l-2.2-5.7
	c-1-0.2-1.7-0.6-2.6-0.8c0-0.2,0-0.4,0-0.6c0-2-0.4-3.9-1-5.8c-1.1-3-2.7-5.9-4.6-8.4c-2.1-2.9-4.4-5.7-7.4-7.5
	c-1-0.6-2.1-1-3.2-1.5l-5.6-2.3c-0.3-0.2-0.6-0.2-1-0.3c-1.5,0-1.8,2.3-1,3.6c1.7,2.5,5.5,3.2,6.6,6c-1.9,0.1-3.5,1.3-4,3.1
	c0,0.5-0.2,0.9-0.5,1.3c-0.5,0.4-1.3,0.2-1.8,0.5c-1,0.5-0.6,2-0.7,3.1c-0.2,1-0.6,1.9-1,2.8C609.2,368.6,609.5,370.5,610.5,372z
	 M744.3,763.1c0-0.6-0.1-1.2-0.1-1.7c0.1,0.3,0.2,0.6,0.3,0.9c1,2.6,2.1,5.1,3.2,7.6l-0.2-0.1c-0.8-0.4-1.7-0.6-2.7-0.8
	c-0.2,0-0.5,0-0.7-0.1C744.4,767,744.5,765.1,744.3,763.1L744.3,763.1z"/>
<path class="st7" d="M729.1,386.8c-0.1,4.1-1.5,8-1.7,12.1c12,0.6,23.8-5.2,35.7-3.4c-3.3-2.1-5.1-6-6.1-9.8
	c-1.3-4.9-1.7-10-1.2-15.1c0-0.3,0.1-0.6,0.2-0.8c0.4-2,1.6-4.8,1.3-6.4c-0.4-2.1-2.4-1.7-4.1-1.5c-5.4,0.4-10.7,1.1-16,2.1
	c-1.4,0.2-14.8,3.6-15,3.2c2.4,3.8,4.3,7.8,5.9,12C728.8,381.5,729.2,384.1,729.1,386.8z"/>
<path class="st7" d="M610.5,374.2c1,1.4,2.3,2.6,3.7,3.7c0.9,0.8,1.8,1.5,2.8,2.2c1.7,1.3,3.8,2.2,6,2.4c2.9,0.2,8.9-1.5,10.7-3.9
	c0.8-1.2,1.1-2.7,1-4.1c0-1.9-0.4-3.9-1-5.7c-1.1-3-2.7-5.8-4.6-8.4c-2.1-2.9-4.4-5.7-7.4-7.4c-1-0.6-2.1-1-3.2-1.5l-5.6-2.3
	c-0.3-0.2-0.6-0.2-1-0.3c-1.5,0-1.8,2.3-1,3.5c1.7,2.5,5.5,3.2,6.6,6c-1.9,0.1-3.5,1.3-4,3.1c0,0.5-0.2,0.9-0.5,1.2
	c-0.5,0.4-1.3,0.2-1.8,0.5c-1,0.5-0.6,2-0.7,3.1c-0.2,1-0.6,1.9-1,2.8C609.2,371,609.5,372.8,610.5,374.2z"/>
<path class="st8" d="M775.9,782.6c-0.9-1-2.4-0.8-3.7-0.6c-6.9,1.1-13.9,1.7-20.9,1.7c-0.9-4.3,1.7-8.4,2.5-12.7
	c0.1-1.1,0.4-2.2,0.8-3.2c1-1.9,3.2-2.8,5.3-3.2c3.8-0.8,9.7-2.2,11.8,1.6C774.1,770.7,774.9,777.5,775.9,782.6z"/>
<path class="st9" d="M699.2,766.4c2.8,2,6.4,2.5,9.8,3c3.4,0.4,6.9,0.8,10,2.3c2.7,1.3,4.9,3.5,7.8,4.4c2.6,0.7,5.4,0.8,8,0.1
	c3.2-0.6,6.6-1.8,8.3-4.5c1.5-2.4,1.4-5.5,1.2-8.4c-0.2-3.2-0.5-6.5-0.7-9.8c0-0.8-0.2-1.6-0.6-2.4c-2.3-3.4-7.9,1.4-10.9,1.4
	c-4.7,0-9.8-2.6-13.2-5.7c-0.3-0.3-0.7-0.6-1-0.8c-1.3-0.6-2.7,0.5-3.9,1.5l-0.4,0.3c-2.8,2.2-6.5,2.6-9.9,3.5
	c-3.4,0.9-7.1,2.7-8.1,6c-0.1,0.2-0.1,0.4-0.2,0.6C694.6,761.3,696.5,764.6,699.2,766.4z"/>
<path class="st10" d="M699.2,766.4c2.8,2,6.4,2.5,9.8,3c3.4,0.4,6.9,0.8,10,2.3c2.7,1.3,4.9,3.5,7.8,4.4c2.6,0.7,5.4,0.8,8,0.1
	c3.2-0.6,6.6-1.8,8.3-4.5c1.5-2.4,1.4-5.5,1.2-8.4c-0.2-3.2-0.5-6.5-0.7-9.8c0-0.8-0.2-1.6-0.6-2.4c-2.3-3.4-7.9,1.4-10.9,1.4
	c-4.7,0-9.8-2.6-13.2-5.7c-0.3-0.3-0.7-0.6-1-0.8c-1.3-0.6-2.7,0.5-3.9,1.5l-0.4,0.3c-2.8,2.2-6.5,2.6-9.9,3.5
	c-3.4,0.9-7.1,2.7-8.1,6c-0.1,0.2-0.1,0.4-0.2,0.6C694.6,761.3,696.5,764.6,699.2,766.4z"/>
<path class="st11" d="M699.2,767.5c2.8,2,6.4,2.5,9.8,3c3.4,0.4,6.9,0.8,10,2.3c2.7,1.3,4.9,3.5,7.8,4.4c2.6,0.7,5.4,0.8,8,0.1
	c3.4-0.7,6.4-2.7,8.3-5.6c1.5-2.4,1.4-5.5,1.2-8.4c-0.2-3.2-0.5-6.5-0.7-9.8c0-0.8-0.2-1.6-0.6-2.4c-2.3-3.4-7.9,1.4-10.9,1.4
	c-4.7,0-9.8-2.6-13.2-5.7c-0.3-0.3-0.7-0.6-1-0.8c-1.3-0.6-2.7,0.5-3.9,1.5c0.8,2.4,1.9,4.7,3.3,6.8c2.3,3.6,6.2,6,10.4,6.5
	c2.1,0.2,4.3-0.3,6.3,0.3s3.9,2.6,3.2,4.6c-0.7,2-3.2,2.4-5.3,2.5c-2.9,0.2-5.9,0.3-8.6-0.6c-1.7-0.6-3.2-1.5-4.9-2.2
	c-6.9-2.9-15.7-1.3-21.5-6.1c-0.5-0.5-1.1-0.9-1.8-1.3C693.8,761.3,696.5,765.6,699.2,767.5z"/>
<path class="st10" d="M699.2,767.5c2.8,2,6.4,2.5,9.8,3c3.4,0.4,6.9,0.8,10,2.3c2.7,1.3,4.9,3.5,7.8,4.4c2.6,0.7,5.4,0.8,8,0.1
	c3.4-0.7,6.4-2.7,8.3-5.6c1.5-2.4,1.4-5.5,1.2-8.4c-0.2-3.2-0.5-6.5-0.7-9.8c0-0.8-0.2-1.6-0.6-2.4c-2.3-3.4-7.9,1.4-10.9,1.4
	c-4.7,0-9.8-2.6-13.2-5.7c-0.3-0.3-0.7-0.6-1-0.8c-1.3-0.6-2.7,0.5-3.9,1.5c0.8,2.4,1.9,4.7,3.3,6.8c2.3,3.6,6.2,6,10.4,6.5
	c2.1,0.2,4.3-0.3,6.3,0.3s3.9,2.6,3.2,4.6c-0.7,2-3.2,2.4-5.3,2.5c-2.9,0.2-5.9,0.3-8.6-0.6c-1.7-0.6-3.2-1.5-4.9-2.2
	c-6.9-2.9-15.7-1.3-21.5-6.1c-0.5-0.5-1.1-0.9-1.8-1.3C693.8,761.3,696.5,765.6,699.2,767.5z"/>
<path class="st12" d="M774.6,555c2.2,10.9,0.1,22.2-5.9,31.5c-1.6,2.5-3.5,4.9-4.8,7.6c-0.8,2-1.4,4-1.9,6l-5.3,21.9
	c-1.4,5.9-2.9,11.9-2.4,17.9c0.3,4.2,1.4,8.9-1.2,12.3c-0.6,0.6-1.2,1.4-1.6,2.1c-0.2,0.9-0.2,1.9,0,2.8c2.7,15.8,4.6,32.4-0.2,47.7
	c-4.4,13.9-4.6,29.3-8.3,43.4c-0.5,1.7-1,3.6-2.3,4.8c-1,0.8-2.2,1.4-3.5,1.6c-5.5,1.3-11.2-0.2-16.3-2.6c-3.6-1.7-7.5-4.6-7.1-8.5
	c0.1-1.9,1.2-3.5,2-5.2c1.5-3.4,1.6-7.2,2-10.8c1-9.2,3.8-18.1,6-27.1s3.6-18.4,1.8-27.5c-3.7-18.8-9.7-37.1-17.7-54.4
	c-0.3-0.9-0.9-1.8-1.6-2.4c-0.8-0.5-1.6-1-2.3-1.6c-0.6-0.9-0.9-1.8-1-2.9c-0.8-2.9-3.2-5-4.8-7.5c-4-6.4-2.7-14.6-2.6-22.1
	c0.1-7.3-0.9-14.7,0.3-21.9c1.2-7.2,5.3-14.6,12.3-16.9c3.5-1.1,7.2-0.9,10.8-0.5C738,544.6,756.6,548.1,774.6,555z"/>
<path class="st10" d="M774.6,555c2.2,10.9,0.1,22.2-5.9,31.5c-1.6,2.5-3.5,4.9-4.8,7.6c-0.8,2-1.4,4-1.9,6l-5.3,21.9
	c-1.4,5.9-2.9,11.9-2.4,17.9c0.3,4.2,1.4,8.9-1.2,12.3c-0.6,0.6-1.2,1.4-1.6,2.1c-0.2,0.9-0.2,1.9,0,2.8c2.7,15.8,4.6,32.4-0.2,47.7
	c-4.4,13.9-4.6,29.3-8.3,43.4c-0.5,1.7-1,3.6-2.3,4.8c-1,0.8-2.2,1.4-3.5,1.6c-5.5,1.3-11.2-0.2-16.3-2.6c-3.6-1.7-7.5-4.6-7.1-8.5
	c0.1-1.9,1.2-3.5,2-5.2c1.5-3.4,1.6-7.2,2-10.8c1-9.2,3.8-18.1,6-27.1s3.6-18.4,1.8-27.5c-3.7-18.8-9.7-37.1-17.7-54.4
	c-0.3-0.9-0.9-1.8-1.6-2.4c-0.8-0.5-1.6-1-2.3-1.6c-0.6-0.9-0.9-1.8-1-2.9c-0.8-2.9-3.2-5-4.8-7.5c-4-6.4-2.7-14.6-2.6-22.1
	c0.1-7.3-0.9-14.7,0.3-21.9c1.2-7.2,5.3-14.6,12.3-16.9c3.5-1.1,7.2-0.9,10.8-0.5C738,544.6,756.6,548.1,774.6,555z"/>
<path class="st12" d="M696.7,600.9c0.1,2.8,0.4,5.7,1,8.5c3.4,18.9,7,37.8,10.7,56.6c0.3,1.6,0.7,3.3,1.1,4.9
	c1.4,5.2,3.9,10.1,7.3,14.4c15.9,19.8,17.3,48.6,25.9,72.5c0.6,1.6,1.2,3.2,1.8,4.9c1.6,4,3.3,8,5.3,11.9c0.2,0.6,0.6,1.1,1.1,1.4
	c0.5,0.3,1.1,0.4,1.7,0.3c7.8,0,15.4-1.7,22.4-5.1c1-0.4,1.8-1,2.4-2c0.3-0.7,0.4-1.5,0.3-2.3c-0.2-4.7-0.5-9.6-2.8-13.8
	c-1.5-2.5-3.4-4.7-5.5-6.7c-0.7-14.9-2.1-29.8-5.4-44.3c-1.7-7.4-3.8-14.9-8.1-21.2c-3.2-4.6-7.7-9.2-7.2-14.8
	c0.3-2.5,1.3-5.5-0.7-7c-0.9-0.6-2.2-0.7-2.8-1.6c-0.2-0.4-0.4-0.9-0.4-1.4c-0.4-3.8-0.2-7.7,0.7-11.5c0.7-2.5,1.3-4.9,1.7-7.5
	c0.3-2.6-0.2-5.3-1.9-7.2c-0.1-5.1,0-10.4-0.1-15.5c-0.2-2.9,0-5.8,0.7-8.7c0.4-1.3,1-2.6,1.3-4c1.1-4.9-1.6-10.7,1.6-14.6
	c1.3-1.6,3.4-2.4,5.1-3.6c3.5-2.3,5.7-6.1,7-10c1.1-4,1.8-8.1,2-12.3c0.1-0.9,0.1-1.8,0-2.7c-0.1-0.5-0.2-0.9-0.4-1.3
	c-1-2.2-3.6-3.1-6-3.6c-15-3.6-30.3-5.4-45.7-5.3c-5.7-3.9-8.9-2.5-11.3,1.6c-1.3,2.5-2.4,5.1-3.2,7.9c-1.1,3.3-1.2,22-2.2,25.4
	C692.7,587.4,696.7,596.3,696.7,600.9z"/>
<path class="st9" d="M799.7,431c0.4,2.9-1,5.9-1.2,8.8c-0.1,2.6,0.7,5.1,1.2,7.7c1.8,9.9-1.7,20-5.3,29.5c-0.7,1.5-1.1,3.2-1.3,4.9
	c-0.1,3.1,1.7,5.9,2.2,9c1,6.4-3.7,12.4-3.8,18.9c0,3,0.9,6,0.1,8.9c-0.5,2-1.7,3.6-2.6,5.4c-1.5,3.2-2,6.8-3.4,10
	c-2.6,5.9-8.2,9.6-13.6,13.1c-3-1-6.3-2.2-8-4.9c-0.7-1.3-1.2-2.8-1.4-4.4c-1.2-6.6-1.1-13.4-1.1-20.1c-0.1-5.8,0.2-11.6,0.9-17.4
	c1.1-7.3,3.5-14.4,5.2-21.6c2.1-9.1,3.2-18.5,6.6-27.2c2.9-7.6,7.5-14.5,12.3-21.1c1.8-2.5,3.3-6.1,6.8-5.5
	C796.7,425.6,799.1,428,799.7,431z"/>
<path class="st10" d="M799.7,431c0.4,2.9-1,5.9-1.2,8.8c-0.1,2.6,0.7,5.1,1.2,7.7c1.8,9.9-1.7,20-5.3,29.5c-0.7,1.5-1.1,3.2-1.3,4.9
	c-0.1,3.1,1.7,5.9,2.2,9c1,6.4-3.7,12.4-3.8,18.9c0,3,0.9,6,0.1,8.9c-0.5,2-1.7,3.6-2.6,5.4c-1.5,3.2-2,6.8-3.4,10
	c-2.6,5.9-8.2,9.6-13.6,13.1c-3-1-6.3-2.2-8-4.9c-0.7-1.3-1.2-2.8-1.4-4.4c-1.2-6.6-1.1-13.4-1.1-20.1c-0.1-5.8,0.2-11.6,0.9-17.4
	c1.1-7.3,3.5-14.4,5.2-21.6c2.1-9.1,3.2-18.5,6.6-27.2c2.9-7.6,7.5-14.5,12.3-21.1c1.8-2.5,3.3-6.1,6.8-5.5
	C796.7,425.6,799.1,428,799.7,431z"/>
<path class="st5" d="M722.1,367c2.4,3.8,4.3,7.8,5.9,12c2.2,0.5,4.4,0.8,6.6,0.8c8.6,0,14.8-4.9,19.8-11.1c0.4-2,3.2-3.9,2.9-5.4
	c-0.4-2.1-2.4-1.7-4.1-1.5c-5.4,0.4-10.7,1.1-16,2.1C735.8,364,722.3,367.4,722.1,367z"/>
<circle class="st7" cx="734.5" cy="351.4" r="27.7"/>
<path class="st5" d="M699.5,549.8c4.8-0.3,9.6-0.1,14.4,0.1c3,0,6,0.3,9,0.9c3.6,0.8,7,2.5,10.6,3.5c5.7,1.7,11.8,1.7,17.8,2.3
	c3.9,0.4,7.8,1,11.6,1.8c-0.1-0.5-0.2-0.9-0.4-1.3c-1-2.2-3.6-3.1-6-3.6c-15-3.6-30.3-5.4-45.7-5.3
	C705.2,544.3,701.9,545.7,699.5,549.8z"/>
<path class="st9" d="M718.4,396.7c1.2,1.4,2.8,2.9,4.6,2.5c0.6-0.2,1.3-0.6,1.8-1c3.2-2.1,7.1-2.5,10.9-3.1c7.6-1.1,15.1-2.8,22.4-5
	c2.1-0.8,4.4-1.2,6.6-1.3c4.7,0,8.9,3.2,11.8,6.8s5,8,7.9,11.7c2.1,2.6,4.5,5,6.4,7.7c4.9,6.9,5.9,15.9,4.6,24.3s-4.6,16.2-7.9,24
	c-1.8,4.5-3.9,8.9-6.4,13c1.1,6.3,0.5,13.6-2.5,19.3c-1,1.9-2.2,3.7-2.5,5.7c-0.1,1.4-0.1,2.8,0.2,4.2l1.4,10
	c0.4,3.1,0.9,6.1,1.4,9.1c1,5.5,2.4,11.6-0.2,16.6c-3.1,6,0.2,13.7-0.7,20.5c-8.7-3.4-17.8-5.5-27.1-6.4c-5.9-0.6-12-0.7-17.8-2.3
	c-3.6-1-7-2.7-10.6-3.5c-3-0.6-6-0.9-9-0.9c-6.6-0.3-13.3-0.5-19.9,0.4c-0.5,0.1-1.2,0.1-1.5-0.3c-0.1-0.2-0.2-0.5-0.2-0.8
	c-0.1-2.5,0.5-4.9,1.7-7.1c0.8-1.5,2-2.9,2-4.6c-0.1-0.8-0.3-1.6-0.6-2.3l-2.9-7.8c-2.5-6.6-1.3-14.2-2.6-21c-1-5.4-1.7-10.8-2-16.3
	c-0.2-4.7-0.1-9.8,2.7-13.5c0.8-0.9,1.5-1.9,2.1-2.9c0.4-1.1,0.6-2.3,0.5-3.5c0.1-9.3-0.2-18.7-0.8-28c2.5-4.4,5-8.9,7.5-13.3
	c2.9-5.1,5.8-10.4,6.9-16.1c0.8-3.8,0.7-7.8,1.3-11.6c0.1-1,0.4-1.9,1-2.7c1-1.1,2.5-1.2,3.9-1.2
	C714.9,395.8,716.7,396.1,718.4,396.7z"/>
<path class="st5" d="M617,380.1c1.7,1.3,3.8,2.2,6,2.4c2.9,0.2,8.9-1.5,10.7-3.9c0.8-1.2,1.1-2.7,1-4.1c-0.4-0.1-0.8-0.2-1.2-0.2
	c-3.1-0.3-6.2-0.2-9.3,0.4C621.2,375.4,618.3,377.3,617,380.1C617,380.1,617,380.1,617,380.1z"/>
<path class="st9" d="M709.2,440c-1.7,2.1-3.4,4.3-5.9,5.5c-2.8,1.4-6,1.5-9.1,1.4c-12.8-0.3-25.5-1.7-38-4.2
	c-1.4-0.2-2.8-0.6-4.2-1.1c-1.5-0.7-2.9-1.6-4.2-2.6c-4.1-2.9-8.3-6-11.4-10c-3.7-4.8-6.1-10.6-6.8-16.6c-3-2.7-4.6-6.6-6-10.4
	c-0.7-1.6-1.2-3.3-1.4-5.1c-0.1-1.8,1.1-3.7,0.8-5.4c-0.6-3-2.1-5.8-4.4-7.9c-0.5-0.3-0.8-0.8-1-1.4c-0.1-0.5,0-0.9,0.3-1.3
	c1.3-2.8,4.2-4.7,7.2-5.4c3.1-0.6,6.2-0.7,9.3-0.4c1,0.2,2,0.5,3,0.8l2.2,5.7c0.3,1,0.8,1.8,1.4,2.6c0.5,0.4,1,0.8,1.5,1.2
	c2.2,1.9,3.4,4.8,3,7.7c4.1,1.6,6.2,6,4.9,10.2c3.3,0.7,6,3.1,7.1,6.3c0.2,0.7,0.5,1.4,1,2c0.7,0.5,1.6,0.8,2.5,0.8
	c2.4,0.1,4.6,2.1,6.8,1c2.5-1.2,5.3-1.6,8.1-1.1c0.6,0.1,1.1,0.2,1.7,0.1c0.5-0.1,1-0.2,1.4-0.5c1-0.6,2.1-1,3.2-1.3
	c1.2-0.2,2.3,0.2,3,1.2c0.8-0.8,1.2-2,2-2.8c0.6-1,1.8-1.5,2.9-1.4c-0.7-0.7,0-2,1-2.2c1-0.1,2,0,2.9,0.1c2.6,0,4.5-2.3,7-2.9
	c2.3-0.6,5.3,0.1,6.5-2c0.4-0.7,0.5-1.7,1.2-2.1c0.5-0.2,1-0.3,1.6-0.2c1.6,0.2,3.2,0.7,4.7,1.4c2.4,9.4,1.1,19.1-0.7,28.6
	C713.6,432.5,711.8,436.6,709.2,440z"/>
<path class="st5" d="M709.2,473.6l11.9,24.1c-1.3-2.2-4-3.1-6.2-4.5c-2.7-2-4.8-4.7-5.9-7.9c-1.1-3.2-1.8-6.4-2.3-9.8
	c-0.2-1.5-0.7-3.7,0-5.1C708.2,470.7,708.7,472.5,709.2,473.6z"/>
<path class="st5" d="M743.6,494c2.7,2.7,6,4.6,8.9,7c6.9,5.5,11.9,13.1,16.7,20.5c1.4,1.9,2.5,4,3.4,6.2c-0.6,0.5-1.4,0-2-0.5
	l-9.4-8.2c-1.2-0.9-2.2-2-3.1-3.2c-1.6-2.2-2.4-4.9-3.8-7.2c-1.6-2.2-3.5-4.2-5.7-5.9c-2.1-1.8-12-10.2-9.6-13.5
	C740.7,490.2,742.1,492.6,743.6,494z"/>
<path class="st9" d="M723.1,389.8c2.9-1.9,6.5-2.6,9.9-3.3c2.1-0.5,4.2-0.6,6.3-0.4c2,0.2,3.8,1,5.8,1.1c2.8,0.2,5.4-1,8.1-1.7
	c2.7-0.7,5.7-1,8,0.6c0.5,0.5,1.1,0.8,1.7,0.9c0.7-0.1,1.3-0.4,1.8-0.9c3.9-2.8,9.1-2.5,12.7,0.7c5.1,4.8,4.5,14.1,10.5,17.7
	c1.6,1,3.7,1.5,4.7,3.2c0.2,0.5,0.5,1,0.8,1.5c0.4,0.4,0.9,0.8,1.4,1c1.7,0.8,3.3,1.7,4.9,2.8c1.5,1.1,2.6,2.8,2.8,4.7
	c0,1.4-0.3,2.7-0.9,4c-6,14.6-20.5,23.9-36.3,23.2c-1.4,0.1-2.7-0.3-3.8-1.2c-0.6-0.6-1-1.4-1.3-2.2c-2.8-5.9-8-10.2-11.4-15.8
	c-2-3.3-3.3-7-5.3-10.3c-3.1-5-7.9-8.6-12.6-12.2c-2.6-2-5.6-4.1-8.9-4c-2.9,0.1-5.1,0.3-4-3.3C718.9,393.3,720.7,391.1,723.1,389.8
	z"/>
<path class="st10" d="M723.1,389.8c2.9-1.9,6.5-2.6,9.9-3.3c2.1-0.5,4.2-0.6,6.3-0.4c2,0.2,3.8,1,5.8,1.1c2.8,0.2,5.4-1,8.1-1.7
	c2.7-0.7,5.7-1,8,0.6c0.5,0.5,1.1,0.8,1.7,0.9c0.7-0.1,1.3-0.4,1.8-0.9c3.9-2.8,9.1-2.5,12.7,0.7c5.1,4.8,4.5,14.1,10.5,17.7
	c1.6,1,3.7,1.5,4.7,3.2c0.2,0.5,0.5,1,0.8,1.5c0.4,0.4,0.9,0.8,1.4,1c1.7,0.8,3.3,1.7,4.9,2.8c1.5,1.1,2.6,2.8,2.8,4.7
	c0,1.4-0.3,2.7-0.9,4c-6,14.6-20.5,23.9-36.3,23.2c-1.4,0.1-2.7-0.3-3.8-1.2c-0.6-0.6-1-1.4-1.3-2.2c-2.8-5.9-8-10.2-11.4-15.8
	c-2-3.3-3.3-7-5.3-10.3c-3.1-5-7.9-8.6-12.6-12.2c-2.6-2-5.6-4.1-8.9-4c-2.9,0.1-5.1,0.3-4-3.3C718.9,393.3,720.7,391.1,723.1,389.8
	z"/>
<path class="st9" d="M708.7,791.3c2,1.9,4.8,2.7,7.5,3.3c6.1,1.2,12.3,1.9,18.5,2.3l6.1,0.5c5.9,0.4,11.8,0.9,17.8,0.9
	c7.3,0,14.6-0.6,21.8-1.9c0.7,0,1.3-0.3,1.7-0.8c0.2-0.4,0.3-0.9,0.3-1.4c-0.1-7.4-1-14.7-2.7-21.9c-0.7-2.9-6,3.7-6.2,3.9
	c-1.5,1.7-2.6,2.4-4.8,2.6c-6.1,0.3-12.9-3.4-17.8-6.7c-1-0.8-2.1-1.5-3.3-2c-0.8-0.4-1.7-0.6-2.7-0.8c-3.1-0.3-6.3,0.4-9.1,1.8
	c-3.6,1.8-6.8,4.4-10.4,6.3c-2.9,1.5-6.1,2.5-9.4,2.9c-3.3,0.4-7.2,0.7-8.9,3.5l0,0C705.7,786.2,706.7,789.4,708.7,791.3z"/>
<path class="st11" d="M708.7,792.3c2,1.9,4.8,2.7,7.5,3.3c6.1,1.2,12.3,2,18.5,2.3l6.1,0.5c5.9,0.4,11.8,0.9,17.8,0.9
	c7.3,0,14.6-0.6,21.8-1.9c0.7,0,1.3-0.3,1.7-0.8c0.6-0.8,1-1.6,1.4-2.5c-0.1-7.4-2.1-14.7-3.8-21.9c-0.7-2.9-6,3.7-6.2,3.9
	c-1.5,1.7-2.6,2.4-4.8,2.6c-6.1,0.3-12.9-3.4-17.8-6.7c-1-0.8-2.1-1.5-3.3-2c-0.8-0.4-1.7-0.6-2.7-0.8c0.8,4.4,7.1,9.7,10.3,11.3
	c6.6,3.3,14.4,1.6,21.7,2c0.5,0,1.1,0.1,1.5,0.4c0.9,0.6,1,1.8,0.9,2.9c-0.1,1.7-0.3,3.8-1.8,4.7c-0.8,0.4-1.6,0.5-2.4,0.5
	c-18.1,0.8-36.1,0.1-54.1-2c-3-0.2-6-0.9-8.8-2c-1.8-0.9-3.6-2-5.1-3.3C704.7,785.6,706.7,790.5,708.7,792.3z"/>
<path class="st9" d="M723.8,351.1c0.1,2.9-1.9,8.4,3.5,6.8c3.2-0.9,4.1-4.7,8.1-3.9c4,0.8,5,5.9,6.4,9.1c2.3,5.3,7,9.1,12.6,10.2
	c1.1,0.3,2.3,0.3,3.5,0c2.6-0.8,4.1-3.4,5.2-5.9c0.9-2.1,1.7-4.3,2.3-6.5c0.4-1.6,0.7-3.2,0.8-4.8l0,0c0.1-1.1,0.1-2.2,0-3.3
	c-0.5-6.5-4.2-12.5-8.9-16.9c-4.8-4.5-10.5-7.7-16.2-10.9c-1.9-1.2-3.9-2.1-6-2.7c-2.1-0.4-4.2-0.5-6.3-0.3c-2.8,0.1-5.5,0.8-8,1.9
	c-1,0.5-2,1.2-2.8,2c-1.2,1.1-2,2.5-2.4,4.1c-1,4.2,1.7,8,3.8,11.3C721.2,344.3,723.6,347.4,723.8,351.1z"/>
<path class="st5" d="M633.6,412.6c1.1-2.9,5.9-10.9,4.6-13.7c-1.4,2-2.7,4.2-3.7,6.5C633.6,407.7,634.3,410.7,633.6,412.6z"/>
<path class="st5" d="M719.1,341.3c-2.2-3.3-4.9-7.1-3.8-11.3c0.5-1.9,1.6-3.5,3.1-4.7c-0.4,0.6-0.6,1.3-0.8,2c-1,4.2,1.7,8,3.8,11.3
	c2,2.9,4.3,6.1,4.5,9.8c0.1,2.9-1.9,8.4,3.5,6.8c3.2-0.9,4.1-4.7,8.1-3.9c4.1,0.8,5,5.9,6.3,9.1c2.3,5.3,7,9.1,12.6,10.2
	c1.1,0.3,2.3,0.3,3.5,0c0.6-0.2,1.1-0.4,1.6-0.8c-0.8,1.6-2.2,2.9-4,3.5c-1.1,0.3-2.3,0.3-3.5,0c-5.6-1.1-10.4-4.9-12.6-10.2
	c-1.4-3.3-2.3-8.2-6.3-9.1s-5,2.9-8.1,3.9c-5.4,1.6-3.4-4-3.5-6.8C723.5,347.4,721.1,344.3,719.1,341.3z"/>
<path class="st5" d="M718,335.6c0.5,0.8,1.1,1.6,1.6,2.4c1.1,1.4,2.4,2.7,3.8,3.9c0.8,0.7,1.7,1.4,2.6,2c1.6,1.2,3.4,2.2,5.2,3.1
	c5.2,2.6,10.9,4.3,16.6,5.9l11.1,3.2c1.4,1,3.8,2.9,6.6,4.8c0.4-1.6,0.7-3.2,0.8-4.8l0,0c0.1-1.1,0.1-2.2,0-3.3
	c-0.5-6.5-4.2-12.5-8.9-16.9c-4.8-4.5-10.5-7.7-16.2-10.9c-1.9-1.2-3.9-2.1-6-2.7c-2.1-0.4-4.2-0.5-6.3-0.3c-2.8,0.1-5.5,0.8-8,1.9
	c-1,0.5-2,1.2-2.8,2c-0.6,0.9-1.1,1.9-1.4,3C715.8,331.2,716.7,333.6,718,335.6z"/>
<path class="st13" d="M718,334.9c0.5,0.8,1.1,1.6,1.6,2.3c1.1,1.4,2.4,2.7,3.8,3.9c0.8,0.7,1.7,1.4,2.5,2c1.6,1.2,3.4,2.2,5.2,3.1
	c5.2,2.6,10.9,4.3,16.6,5.9l11.1,3.2c3.9,2.9,16.8,12.5,18.9,11.3c2.6-1.4-11.5-11.3-11.5-11.3l-0.6,0.5c2.1-1.3,3.1-4.3,3.6-6.8
	c0.8-4.6,1.2-9.4,0.1-14s-3.9-8.9-8-11.1c-1.9-1-4.1-1.6-5.5-3.1c-0.2-0.2-0.4-0.5-0.5-0.7c-0.1-0.1-0.2-0.2-0.2-0.4
	c-0.1-0.4-0.3-0.8-0.6-1.1c-0.8-0.9-2.2-0.6-3.3-0.5c-0.1,0-0.2,0-0.4,0c-0.2,0-0.4,0-0.6,0c-4.2,0.1-8.2-2.2-12.4-2.2
	c-4.6,0-8.5,2.7-12.6,4.5c-0.8,0.4-1.6,0.7-2.3,1.1c-2.9,1.4-5.1,2.8-6.3,6.7C715.8,330.4,716.7,332.9,718,334.9z"/>
<path class="st5" d="M750.1,318.1c-0.2,0.3-0.3,0.6-0.3,1c0,0.6,0.3,1.1,0.7,1.5c0.5,0.4,1.1,0.6,1.7,0.6c0.5,0.1,0.9,0.1,1.4,0.1
	c0.6,0.1,1.2-0.1,1.8-0.3c0.1-0.1,0.2-0.1,0.3-0.2c-0.2-0.2-0.4-0.5-0.5-0.7c-0.1,0.1-0.2,0.1-0.6,0c-0.8,0-1.5-0.2-2.2-0.4
	c-0.3-0.1-0.6-0.2-0.8-0.4c-0.4-0.3-0.7-0.7-0.8-1.2L750.1,318.1z"/>
<path class="st5" d="M765.9,355.2c-0.6,0.4-1.3,0.6-2,0.7c-0.5,0.1-1,0.2-1.5,0.2c-1.3,0-2.5-0.4-3.6-1"/>
<rect x="210.2" y="342.6" class="st14" width="50.5" height="24.8"/>
<rect x="210.2" y="412.1" class="st14" width="50.5" height="24.8"/>
<rect x="210.2" y="481.6" class="st14" width="50.5" height="24.8"/>
<rect x="210.2" y="551.1" class="st14" width="50.5" height="24.8"/>
<linearGradient id="SVGID_2_" gradientUnits="userSpaceOnUse" x1="189.2755" y1="226.3787" x2="401.1027" y2="226.3787" gradientTransform="matrix(1 0 0 -1 -35 771.42)">
	<stop  offset="0" style="stop-color:#808080;stop-opacity:0.25"/>
	<stop  offset="0.54" style="stop-color:#808080;stop-opacity:0.12"/>
	<stop  offset="1" style="stop-color:#808080;stop-opacity:0.1"/>
</linearGradient>
<path class="st15" d="M363.5,404.7c1.4-0.9,0.8-3.3-0.6-4.1c-1.5-0.8-3.2-0.6-4.9-0.2c0.2-0.9-0.3-1.7-1-2.1v-0.4
	c1-0.9,0.6-2.9-0.6-3.7s-2.9-0.9-4.5-0.8c0.2-1.9-0.5-3.8-2-5.1c-0.3-0.3-0.7-0.5-1.1-0.5c-0.9,0-1.2,1.2-1.3,2.1
	c-0.2,2.4-0.6,4.7-1.2,7l-29.6,49.5c-3.3,4.8,6.9-9.5,3.6-4.7c-1.7,2.6-3.6,5-5.9,7.2c-2,1.8-4.2,3.2-6.6,4.4
	c-1.6,0.1-3.2-0.4-4.5-1.3c-1.7-1.2-3.1-2.6-4.3-4.3c-2.6-3.3-4.9-6.7-7-10.4c-0.7-1.1-1.3-2.4-1.6-3.7c-0.4-2,0-4.3-0.8-6.2
	c-0.3-0.7-0.8-1.4-1.3-2l-2-2.7c0,0,0-0.1,0-0.1c-0.2-4-3.5-7.1-6.5-9.8c-2.6-2.3-5.4-4.6-8.8-5.1c-1.8-0.2-3.7,0.1-5.5-0.1
	c-1.5-0.2-2.9-0.8-4.4-1c-1.4-0.2-2.9-0.2-4.3-0.1l-0.6-0.6c3.2-1.3,5.8-3.6,7.7-6.5c1.4-2.3,2.2-4.9,3.5-7.2c1.6-2.9,3.9-5.2,5.7-8
	c4.3-6.5,5-14.9,3.3-22.4c-1.7-7.6-5.8-14.5-10.5-20.6c-9.1-11.8-24.5-16.2-38.9-13.9c-1,0.1-2,0.3-2.9,0.5
	c-2.4,0.5-4.8,1.3-7.1,2.3c-3.1,1.3-5.8,3.3-7.7,6c-0.5,0.8-1,1.6-1.3,2.5c-0.3,0.7-0.5,1.4-0.7,2c-0.4,2.1-0.6,4.3-0.4,6.4
	c0.1,0.7,0.1,1.5,0.2,2.2c0,0.4,0.1,0.7,0.1,1.1c0.1,0.7,0.2,1.5,0.3,2.2c0.2,1.1,0.3,2.2,0.4,3.3c0.1,0.8,0.1,1.5,0.1,2.3
	c0,0.2,0,0.4,0,0.6c0,0.6-0.1,1.1-0.3,1.7c-0.1,0.3-0.2,0.6-0.3,0.9c-0.3,0.9-0.8,1.7-1.3,2.5c-0.7,1-1.6,2-2.4,2.9l-0.8,1l-0.8,1
	c-1.1,1.3-2.1,2.6-3,4c-0.4,0.7-0.8,1.4-1.2,2.2c-0.3,0.6-0.5,1.2-0.7,1.8c-0.3,0.8-0.4,1.6-0.5,2.5c0,0.2,0,0.4-0.1,0.6
	c0,0.4,0,0.8,0,1.2c0,0.4,0.1,0.8,0.1,1.2c0.1,0.8,0.4,1.6,0.7,2.4c0,0.1,0.1,0.2,0.2,0.3c0,0.1,0.1,0.2,0.2,0.3
	c0,0.1,0.2,0.4,0.3,0.6c0.1,0.3,0.2,0.6,0.3,1c0,0.1,0,0.2,0,0.3c0,0.1,0,0.2,0,0.4c-0.2,1-0.7,1.8-1.4,2.4
	c-0.2,0.2-0.4,0.3-0.6,0.5l-0.3,0.2l-0.6,0.5l-0.6,0.5c-0.5,0.4-1,0.9-1.4,1.4c-5.4-0.3-10.7,0.2-15.9,1.6c-1.9,0.6-3.8,0.9-5.7,1
	c-0.9,0.1-1.9-0.3-2.5-1c-0.3-0.7-0.4-1.5-0.3-2.3c0.3-3.2-0.3-6.4-1.5-9.3c-0.3-0.9-0.8-1.6-1.5-2.2c-0.7-0.6-1.7-0.6-2.5-0.1
	c1.6,5.2,1.4,10.8-0.7,15.9c-1,2.4-2.3,4.7-3.7,6.9c-2.2,3.7-3.4,7.9-5.3,11.8c2.2,7.3,1.7,15.1,2.8,22.7c1.1,7,3.5,13.8,6,20.5
	c1.9,5,3.9,10.3,7.9,13.8c1.3,1.3,3,2.1,4.9,2.1c1.4-0.2,2.7-0.7,3.8-1.4c1.2-0.6,2.3-1.4,3.2-2.4c0.4-0.4,0.7-0.8,1-1.3
	c0.1,0.6,0.4,1.3,0.7,1.8c2.3-5,4.9-9.9,7.6-14.7c0.8-0.4,1.6-1,2.3-1.6c0,0.2,0.1,0.3,0.1,0.5c-0.1,0.5-0.2,0.9-0.4,1.4
	s-0.3,0.9-0.4,1.3s-0.2,0.6-0.3,1c-0.1,0.3-0.3,0.8-0.4,1.1l-0.5,1.2c-0.1,0.3-0.2,0.6-0.4,0.9c-0.3,0.7-0.6,1.4-0.9,2.1
	c0.3,0.1,0.5,0.2,0.8,0.3l0.2,0.1c0.2,0.1,0.5,0.1,0.8,0.2h0.3l0.6,0.1h0.2c0.1,0,0.2,0,0.3,0h0.4c0.7,0,1.4-0.2,2-0.4
	c0.1,0.5,0.2,1,0.4,1.5c0.9,3.4,1.6,6.9,1.8,10.4c0.2,4-0.5,8.1,0.2,12c0.4,2,1.2,4,1.5,6.1c0.2,1.9,0.2,3.9-0.1,5.9
	c-0.4,4.7-0.9,9.4-1.3,14c0,1.7-0.5,3.4-1.2,4.9c-0.7,1.1-1.7,2.4-1.1,3.6c1.1-0.3,2.2-0.5,3.3-0.6c-0.4,1.5-0.8,3-1.1,4.5
	c-0.3,1.1-0.4,2.3-0.3,3.5c0.2,1.1,0.9,2.1,1,3.2c0.2,1.7-1,3.2-1.7,4.8c-1.7,4.1,0.1,8.6,1.9,12.7l5.2,11.9
	c1.4,3.3,2.9,6.5,4.3,9.8c1.3,2.9,2.6,5.9,3.8,8.8c5.6,13.4,10.2,27.1,13.7,41.2c0.1,0.6,0.4,1.2,0.7,1.8c0.7,1,2,1.3,3.1,1.9
	c3.2,1.8,3.6,7.1,0.6,9.3c0.6,7.2-4.8,14.1-7.5,20.7c-6.4,15.2-5.2,32.4-7.4,48.8l2.5-1.4c0.3,0.1,0.6,0.3,0.8,0.5
	c-0.1,0.3-0.1,0.6-0.2,0.9c-0.3,1.4-0.9,2.7-1.6,4c-1.4,2.5-3.6,4.7-4,7.5c-0.2,1.7,0.3,3.4,0.3,5.2c0,0.2,0,0.3,0,0.5
	c-0.2-0.2-0.5-0.2-1.1,0.2c-0.8,0.8-1.3,1.8-1.6,2.9c-0.4,1.2-0.8,2.5-1.1,3.7l-1.2,4.4c-0.7,2.6-1.5,5.2-2.6,7.7
	c-0.9,1.7-1.7,3.4-2.3,5.3c-0.3,1.5-0.5,3-0.4,4.5c0,1.4,0.2,2.9,0.6,4.3c1.2,2.8,3.4,4.9,6.2,5.9c2.8,1,5.7,1.5,8.7,1.6
	c0.8,0.1,1.5,0.1,2.3-0.1c0.8-0.2,1.6-0.6,2.2-1.2c4-2.9,6.1-8.4,6.4-13.4c-0.1-1-0.3-2-0.5-3c0.2-5.4-0.5-10.9-0.1-16.2
	c0.1,0.6,0.2,1.2,0.3,1.8c0.3,2,0.7,4,1,6.1c-0.1-0.2-0.2-0.4-0.3-0.6c-0.7,2.2-0.8,4.6-0.4,6.9c0.5,2.3,1.1,4.5,2,6.7l1.3,3.6
	c0.3,1.1,0.8,2.1,1.5,3c1.1,1.2,2.9,1.7,4.5,2.1c3.6,1,7.2,1.7,10.9,1.9c0.5,0.1,1,0,1.4-0.3c0.2-0.2,0.4-0.4,0.6-0.5
	c0.3-0.2,0.7-0.4,1.1-0.6c1.6-0.8,2.8-2.3,3.3-4c0.5-1.7,0.3-3.6-0.6-5.1c-0.4-0.6-0.9-1.2-1.5-1.8l-6.5-6.9c-1-1.2-2.1-2.3-3.2-3.4
	c-0.3-0.3-0.7-0.4-1-0.4c-1.8-4.4-1.5-9.6-1.2-14.4c0.1-1.4,0.9-4.4,1.2-6.9c1.3-0.4,2.4-1,3.5-1.9c1-0.7,1.7-1.8,2-2.9
	c3.3-16.8,8.6-33,13.6-49.4c0.5-1.6,1-3.2,1.5-4.9l0.6-2.1c0.2-0.6,0.3-1.1,0.5-1.7c0.3-1,0.5-1.9,0.8-2.9c0.1-0.3,0.1-0.5,0.2-0.8
	c0-0.1,0-0.1,0-0.2c0.3-1.2,0.6-2.3,0.9-3.5l0.4-1.3c0.4-1.5,0.7-3,1.1-4.5c0-0.2,0.1-0.4,0.1-0.6c0.1-0.5,0.1-1.1-0.1-1.6l0,0l0,0
	c-0.1-0.2-0.2-0.4-0.4-0.5c-0.1-0.1-0.2-0.2-0.3-0.4l-0.4-0.4c-0.3-0.4-0.5-0.8-0.7-1.2c0-0.5,0-0.9,0-1.4c0-0.4-0.1-1-0.1-1.5
	c0.1-0.6,0.2-1.3,0.4-1.9c0.1-0.4,0.2-0.7,0.4-1.1c0.1-0.4,0.3-1,0.4-1.4c0.6-0.6,0.9-1.5,0.9-2.4c0.6-1.5,1.2-2.9,2-4.3
	c0.9-1.4,1.5-3,1.7-4.7c0-1.5-0.2-3-0.6-4.4c-1-6.2,1.9-12.2,4-18.1c1.6-4.3,2.7-8.8,3.5-13.3c0.6-3.5,1.1-7.1,2.9-10.1
	c0.6-0.8,1.1-1.7,1.6-2.7c0.3-1,0.4-2,0.4-3.1c0.2-4.2,1.2-8.3,3-12.2c0.4-0.7,0.7-1.5,0.8-2.4c0-0.1,0-0.1,0-0.2v-0.2l0.5-0.1
	c0.8-5.2,1.7-11.1,1.1-16.4c-0.7-6.1-3.7-11.8-8.4-15.8h0.1c1.6-0.8,2.4-2.8,2.4-4.6c0-2.7-1.2-5.4-3.4-7.1
	c-0.5-0.3-0.9-0.7-1.1-1.2c-0.2-0.5-0.2-1-0.1-1.5c0-3.2-1.9-6.1-4.9-7.3c-0.3-0.1-0.6-0.2-0.8-0.5c-0.2-0.4-0.3-0.9-0.2-1.4
	c0.2-3.2-1.4-6.2-4.1-7.8c0.5-2,0.6-4.1,0.2-6.2c-0.6-2-2.5-3.8-4.5-3.5c1.7-4.6-0.7-9.7-0.1-14.5c0.3-2.1,1.1-4.1,1.2-6.1
	c0.1-1.9-0.4-3.9,0.5-5.6c0.9-1.7,3.1-2.9,2.5-4.7c-0.2-0.8-1-1.3-1.3-2.1c-0.3-0.8,1-2,1.7-1.5c0.3-0.2,0.6-0.5,1-0.8
	c0.1,1,0.3,1.9,0.6,2.9c0.5,1.6,1.2,3,1.7,4.6c0.7,2.4,1,4.9,2.2,7.1c2,3.5,5.9,5.2,8.7,8.1c1.6,1.7,2.7,3.8,4.4,5.4
	c1.3,1.2,2.6,2.2,4.1,3.1l8.8,5.7c0.9,0.7,1.9,1.2,3,1.5c2.8,0.5,5.5-1.3,6-4.1c0-0.1,0-0.2,0-0.3c-0.8-0.3-1.6-0.7-2.2-1.3
	c0.1,0,0.3,0,0.4-0.1c2.1-0.5,4-1.6,5.7-3c6.3-5,10.7-11.8,15.2-18.5c4.6-7,26.8-25.6,26.8-25.6V420c2.8-1.6,5.3-3.8,7.4-6.3
	c1.1-1.4,1.8-3,1.9-4.8C366.2,407.1,365.2,405.4,363.5,404.7z M179.1,422.7c-0.4,2.7-1,5.4-1.6,8.2c-0.7,3.1-1.6,6.2-2.6,9.2
	c-0.1,0.3-0.2,0.6-0.3,1c-0.3-0.6-0.6-1.2-0.9-1.8c-0.7-1.5-1.3-3.1-1.9-4.6l-3.7-9.9c-0.5-1.3-1-2.8-0.2-4c0.5-0.7,1.3-1.3,2.1-1.6
	c2.6-1.2,5.3-2.1,8-2.7c0.9-0.2,1.7-0.4,2.6-0.7C179.9,418.1,179.4,420.4,179.1,422.7z M183.2,410.4c-0.2-0.4-0.2-1,0-1.4
	c0.3-0.3,0.6-0.5,1-0.7c0.1-0.1,0.2-0.1,0.3-0.2L183.2,410.4z M190.8,399.7c-1.1,0.9-2.1,1.9-2.9,3c-0.9,1.2-1.8,2.5-2.5,3.9
	c0.2-1.1-0.2-2.2-1-2.9c-0.3-0.2-0.7-0.4-1-0.6c-0.7-0.9-0.5-2.1,0.4-2.8c0.9-0.6,1.9-0.9,2.9-1l4.4-0.6
	C190.9,398.9,190.9,399.3,190.8,399.7L190.8,399.7z M231.9,718.2c0.1-1.3,0-2.6-0.3-3.9c0.5,0,1.1,0,1.6,0L231.9,718.2z"/>
<path class="st12" d="M227.4,330.3c-7.6,1.2-16.1,4.2-19,11.3c-2.2,5.4-0.5,11.5,0.1,17.3c0.2,1.5,0.2,3.1-0.2,4.6
	c-0.6,2.4-2.4,4.4-4,6.3c-2.3,2.4-4.3,5.1-5.8,8.1c-1.4,3.1-1.8,6.7-0.4,9.8c0.5,0.8,0.8,1.6,1,2.6c0.1,2-2,3.2-3.5,4.5
	c-5.7,4.7-5.5,13.4-5.5,20.8c-0.1,15.2-3.5,30.2-9.9,43.9c4.9,2.5,10.9,1.7,15-2c-0.8,3.4-1.9,6.7-3.4,9.8
	c4.9,2.3,10.7-1.5,13.1-6.3c2.4-4.8,2.7-10.4,4.4-15.5c1.7-5.1,4.8-9.5,6.1-14.6c0.4-1.7,0.7-3.5,1.7-4.9c0.9-1,1.9-1.9,3-2.6
	c5-3.6,8.8-8.8,10.7-14.6c5.9,1.3,12,2.6,18,2.1c6-0.5,12.2-3.3,15.4-8.4c1.4-2.3,2.2-4.9,3.5-7.2c1.6-2.9,3.9-5.2,5.7-7.9
	c4.2-6.5,5-14.9,3.3-22.4c-1.7-7.6-5.8-14.4-10.5-20.6C257.1,332.4,241.8,328,227.4,330.3z"/>
<path class="st13" d="M179.3,425.5c-0.4,2.7-0.9,5.4-1.6,8.1c-0.7,3.1-1.6,6.2-2.6,9.2c-0.6,1.3-0.9,2.8-0.8,4.2
	c0.2,0.9,0.5,1.7,1,2.5c3.5,6.2,8.2,12.1,8.6,19.2c0.1,1.8,0,3.7,1,5.1c2.7-5.8,5.7-11.4,8.9-16.9c3.4-5.8,7.2-11.6,8.1-18.2
	c0.4-3.1,0.3-6.2-0.1-9.3c-0.4-3.5-1.2-7-3.3-9.8c-2.3-3-8.6-7.5-12.7-6.6C180.9,414.2,179.9,421.6,179.3,425.5z"/>
<path class="st7" d="M302,458.8c4.6-1.9,9.2-3.8,12.8-7.2c2.2-2.2,4.2-4.6,5.9-7.2l10.7-15.5c2.5-3.7,5.2-7.5,5.7-12
	c6.3-6.6,10.1-15.2,10.7-24.3c0.1-0.9,0.4-2.1,1.3-2.1c0.4,0,0.8,0.2,1.1,0.5c1.4,1.3,2.2,3.2,2,5.1c1.6-0.1,3.3-0.1,4.5,0.8
	c1.3,0.9,1.6,3.2,0.2,3.9c1,0.3,1.5,1.2,1.4,2.2c1.6-0.3,3.4-0.6,4.9,0.2c1.4,0.8,2,3.2,0.6,4.1c1.7,0.6,2.8,2.3,2.7,4.1
	c-0.1,1.8-0.7,3.4-1.9,4.8c-4.1,5.5-11.4,7.7-16.1,12.7c-1.6,1.7-3,3.6-4.2,5.6l-13.8,21c-4.4,6.7-8.9,13.5-15.2,18.5
	c-1.6,1.4-3.6,2.5-5.6,3c-2.1,0.5-4.4-0.1-5.9-1.6c-1.4-1.6-1.6-3.8-1.7-5.9C301.6,466,302.3,462.4,302,458.8z"/>
<path class="st12" d="M255.8,750.8c0.5,0.5,1,1.1,1.5,1.8c0.9,1.5,1.2,3.4,0.6,5.1c-0.6,1.7-1.8,3.1-3.3,4c-0.4,0.2-0.7,0.4-1.1,0.6
	c-0.2,0.2-0.4,0.4-0.6,0.5c-0.4,0.2-0.9,0.3-1.4,0.3c-3.7-0.2-7.4-0.8-10.9-1.9c-1.6-0.4-3.4-0.9-4.5-2.1c-0.7-0.9-1.2-1.9-1.5-3
	l-1.3-3.6c-0.8-2.2-1.5-4.4-2-6.7c-0.5-2.3-0.4-4.7,0.4-6.9c0.3,0.4,0.5,0.9,0.5,1.4c0.4,2.4,1.3,4.7,2.8,6.7
	c0.9,1.6,2.5,2.6,4.3,2.7c2.3,0.5,4.6,0.8,6.9,0.9c0.3,0,0.7,0,1-0.1c0.4-0.2,0.7-0.6,0.8-1c0.3-0.9,0.3-1.9,0-2.8
	c-0.6-1.8-2.3-2.9-3.2-4.6c-0.6-1.2,0.2-2.6,1.5-1.6c1.1,1.1,2.2,2.2,3.2,3.4L255.8,750.8z"/>
<path class="st7" d="M243.8,725.7c-0.4,5.9-0.6,12.1,2.6,17c1.1,1.8,2.7,3.2,4,4.9c0.7,0.8,1.2,1.8,1.4,2.9c0.2,2.1-1.8,4-3.9,4.4
	c-2.1,0.4-4.3-0.3-6.3-0.9c-1.9-0.5-3.7-1.3-5.3-2.5c-2.8-2.3-3.5-6.2-4.1-9.8l-1.3-8.3c-0.4-2-0.5-4-0.5-6.1
	c0.3-2.2,0.8-4.4,1.6-6.5l2.1-6.3c0.2-0.6,0.5-1.2,1-1.6c0.5-0.3,1.1-0.4,1.6-0.3c2,0.1,7.2,0.8,8.2,3
	C245.8,717.5,244,723.5,243.8,725.7z"/>
<path class="st10" d="M243.8,725.7c-0.4,5.9-0.6,12.1,2.6,17c1.1,1.8,2.7,3.2,4,4.9c0.7,0.8,1.2,1.8,1.4,2.9c0.2,2.1-1.8,4-3.9,4.4
	c-2.1,0.4-4.3-0.3-6.3-0.9c-1.9-0.5-3.7-1.3-5.3-2.5c-2.8-2.3-3.5-6.2-4.1-9.8l-1.3-8.3c-0.4-2-0.5-4-0.5-6.1
	c0.3-2.2,0.8-4.4,1.6-6.5l2.1-6.3c0.2-0.6,0.5-1.2,1-1.6c0.5-0.3,1.1-0.4,1.6-0.3c2,0.1,7.2,0.8,8.2,3
	C245.8,717.5,244,723.5,243.8,725.7z"/>
<path class="st12" d="M289.6,553.3c0,0.1,0,0.1,0,0.2c-0.1,0.8-0.4,1.6-0.8,2.4c-1.7,3.8-2.8,7.9-3,12.1c0,1-0.1,2.1-0.4,3.1
	c-0.4,0.9-0.9,1.9-1.6,2.7c-1.9,3-2.3,6.7-2.9,10.1c-0.8,4.5-2,9-3.5,13.3c-2.1,5.9-5,11.9-4,18.1c0.4,1.5,0.6,2.9,0.6,4.4
	c-0.3,1.7-0.9,3.2-1.7,4.7c-0.7,1.4-1.4,2.8-2,4.3s-1.2,3.2-1.7,4.9c-0.6,2-1,4.4,0.4,5.9c0.4,0.4,0.8,0.8,1.1,1.3
	c0.2,0.7,0.2,1.5,0,2.2c-0.7,3.2-1.6,6.3-2.4,9.5c-0.7,2.5-1.4,4.9-2.1,7.4c-5.3,18-11.4,35.7-15,54.2c-0.5,2.6-3.9,4.5-6.5,5.1
	c-2.7,0.6-5.5-0.2-7.5-2l-0.5-0.5c-2.8-2.9-3.2-7.5-2.9-11.6c1-18.9,10.5-36.3,15-54.7c1.6-6.7,2.6-13.5,2.9-20.3
	c1.1-22.9,1.5-47-5-69c-1.3-4.6-2.9-9.8-0.5-13.8c1.5-2.6,4.4-4.1,7.1-5.2c11.5-4.5,24.4-4.2,35.7,0.9c0,0.5,0,0.9,0,1.4
	c-0.2,2.1,0,4.3,0.7,6.3C289.3,551.5,289.5,552.4,289.6,553.3z"/>
<path class="st12" d="M211.3,731.6l-1.2,4.4c-0.6,2.6-1.5,5.2-2.6,7.7c-0.9,1.7-1.7,3.4-2.3,5.3c-0.3,1.5-0.5,3-0.4,4.5
	c0,1.4,0.2,2.9,0.6,4.3c1.1,2.8,3.4,4.9,6.2,5.9c2.8,1,5.7,1.5,8.7,1.6c0.8,0.1,1.5,0.1,2.3-0.1c0.8-0.2,1.6-0.6,2.2-1.2
	c4-2.9,6.1-8.4,6.4-13.3c-0.1-1.2-0.3-2.3-0.7-3.4c-0.3-0.4-3.3,1.3-2,2.7c2,2.1-3.7,1-6.6,0.8c-1.2-0.1-2.5-0.3-3.7-0.6l-4.6-1
	c-1.5-0.3-3.3-0.8-3.8-2.3s0.6-3.2,1.6-4.6c2.4-3.7,3-8.3,3.6-12.7c0.1-0.9,1.2-6.5-1-4.7c-0.8,0.8-1.3,1.8-1.6,2.9
	C212,729.1,211.6,730.3,211.3,731.6z"/>
<path class="st10" d="M268.9,639.5c-1.3-1.6-0.9-4-0.4-5.9c0.2-0.7,0.4-1.5,0.7-2.2l-18.2-6.1c-0.1,1.6-0.1,3.3-0.2,4.9
	c-0.3,6.8-1.3,13.7-2.9,20.3c-4.5,18.4-14.1,35.7-15,54.6c-0.2,4.4,0.3,9.2,3.5,12.2c2,1.8,4.8,2.6,7.5,2c2.6-0.6,6-2.5,6.5-5.1
	c3.6-18.4,9.6-36.2,15-54.2c1.7-5.6,3.2-11.2,4.5-16.9c0.2-0.7,0.2-1.5,0-2.2C269.7,640.3,269.3,639.8,268.9,639.5z"/>
<path class="st7" d="M218.7,711.6c-1.4,2.5-3.6,4.7-4,7.5c-0.2,1.7,0.3,3.4,0.3,5.1c-0.1,1.4-0.3,2.8-0.8,4.2
	c-1.8,6.4-3.8,12.7-6.1,18.9c-0.4,0.8-0.5,1.7-0.5,2.6c0.2,1.5,1.6,2.4,3,3c4.3,1.9,9.2,1.7,13.9,1.5c1.4,0.1,2.7-0.2,3.9-0.9
	c1.7-1.2,2.1-3.4,2.2-5.5c0.3-5.9-0.7-11.8,0-17.7c0.2-2.1,0.7-4.2,1-6.4c0.5-2.9,0.7-6-0.3-8.9c-0.8-2-1.9-3.9-3.3-5.6
	c-1.2-1.8-2.8-3.4-4.6-4.6c-0.5-0.3-2.1-1.3-2.7-0.7c-0.3,0.3-0.2,1.2-0.2,1.6c-0.1,0.6-0.2,1.2-0.3,1.8
	C219.9,709.1,219.4,710.4,218.7,711.6z"/>
<path class="st10" d="M253.6,560.7c-0.8,1.2-0.7,2.8-0.3,4.1c0.6,2.5,1.6,4.9,2.4,7.4c1.3,4.4,2.4,8.9,3.1,13.4
	c0.8,4.1,2.4,8.7,1.7,12.8c5,9.4,8.2,19.7,9.7,30.2c0.4,2.7-5.7,6.2-5.5,9c0.2,5.4,4.6,5.9,1.4,10.2c-0.2,0.2,1.2,5.1,1,5.3
	c-1.3,1.6-2.9,2.8-4.4,4.3c-1.8,2-3.3,4.3-4.6,6.7c-8.3,15-20.3,31.9-16.6,48.6c0.2,1.2-0.5,2.4-1.6,3c-1.1,0.5-2.3,0.8-3.5,0.8
	h-0.6c-2.8-2.9-3.2-7.5-2.9-11.6c1-18.9,10.5-36.3,15-54.7c1.6-6.7,2.6-13.5,2.9-20.3c1.1-22.9,1.5-47-5-69
	c-1.3-4.6-2.9-9.8-0.5-13.8c1.5-2.6,4.4-4.1,7.1-5.2c11.5-4.5,24.4-4.2,35.7,0.9c0,0.5,0,0.9,0,1.4c-0.2,2.1,0,4.3,0.7,6.3
	c0.4,0.9,0.6,1.8,0.7,2.7c0,0.1,0.3-3.7,0.3-3.6c-7.4,1.1-15.2,5.9-22.6,7c-3.9,0.4-7.7,1.2-11.3,2.5
	C255,559.4,254.2,560,253.6,560.7z"/>
<path class="st12" d="M202.2,520.2c-1,3.2-1.9,6.4-2.6,9.6c-0.3,1.1-0.4,2.3-0.3,3.5c0.2,1.1,0.9,2.1,1,3.2c0.2,1.7-1,3.2-1.7,4.8
	c-1.7,4,0.1,8.6,1.9,12.6l5.2,11.9l4.3,9.8c1.3,2.9,2.6,5.8,3.8,8.7c5.6,13.3,10.2,27.1,13.7,41.1c0.1,0.6,0.4,1.2,0.7,1.8
	c0.7,1,2,1.2,3.1,1.8c3.2,1.8,3.6,7.1,0.6,9.3c0.6,7.1-4.8,14.1-7.5,20.7c-6.3,15.2-5.2,32.4-7.4,48.8l2.5-1.4
	c2.4,1.1,2.3,4.4,3.6,6.7c2,3.4,6.6,3.9,10.5,3.6c1.2,0,2.4-0.3,3.5-0.8c1.1-0.6,1.7-1.8,1.6-3c-3.7-16.7,8.3-33.7,16.6-48.6
	c1.2-2.4,2.8-4.7,4.6-6.7c1.4-1.5,3.1-2.7,4.4-4.3c3.7-4.4,4.1-10.6,3.9-16.3c-0.6-13.4-4.1-26.6-10.4-38.5c0.7-4.1-1-8.7-1.7-12.8
	c-0.7-4.5-1.8-9-3.1-13.4c-0.8-2.5-1.8-4.9-2.4-7.4c-0.3-1.4-0.5-3,0.3-4.1c0.6-0.7,1.4-1.2,2.3-1.5c3.7-1.3,7.5-2.1,11.4-2.6
	l25.5-3.7c0.8-5.2,1.7-11.1,1.1-16.4c-1.3-10-8.3-18.3-18-21c-1.1-0.3-2.4-0.5-3.3,0.2C247.3,511.4,224,512.9,202.2,520.2z"/>
<path class="st7" d="M225.4,382.2c0.4,2.5,0,5-1.1,7.3c-0.8,1.2-1.8,2.3-2.9,3.2c-2.5,2-5.3,3.4-8.4,4.2c-1.8,0.4-3.8,0.8-5,2.2
	c-1.8,2.2-0.6,5.4,1,7.8c2.6,4.1,6.3,7.8,11,9.1c3.8,1,7.8,0.4,11.6,1.1c2.8,0.5,5.4,1.6,8.2,2.3c8,1.8,16.3-0.5,22.2-6.2
	c-4.1-3.1-8.3-6.5-10.4-11.2c-1.5-3.4-1.8-7.2-0.8-10.7c1-3.5,3.2-6.9,2.5-10.4c-0.7-3.6-4.2-6-7.7-7.2c-3.1-1-6.3-1.6-9.6-2
	c-1.8-0.2-13.2-2.8-13.9-1.5c-0.4,0.7,2,4.9,2.3,5.8C224.9,378,225.3,380.1,225.4,382.2z"/>
<circle class="st7" cx="239.8" cy="367.4" r="23.2"/>
<path class="st13" d="M227.5,405.7l15.7,2.7c3.9,0.8,7.8,1.2,11.7,1.2c2.2-0.2,4.3-0.2,6.5,0c1.5,0.2,2.9,0.8,4.4,1
	c1.8,0.2,3.7-0.1,5.5,0.1c3.4,0.4,6.2,2.8,8.8,5.1c3,2.7,6.3,5.7,6.5,9.8c0.1,0.5,0,0.9-0.2,1.3c-0.3,0.5-0.7,0.9-1.2,1.2
	c-2.9,2.4-4.5,5.9-6.6,9c-2.1,3.2-4.8,6.1-7.8,8.4c-0.7-0.4-2,0.7-1.7,1.5c0.3,0.8,1,1.3,1.3,2.1c0.6,1.8-1.6,3.1-2.5,4.7
	s-0.4,3.7-0.5,5.6c-0.1,2.1-1,4.1-1.2,6.1c-0.6,4.8,1.7,9.9,0.1,14.5c2.1-0.3,3.9,1.5,4.5,3.5c0.4,2,0.4,4.2-0.2,6.2
	c2.7,1.6,4.3,4.6,4.1,7.8c-0.1,0.5,0,1,0.2,1.4c0.2,0.2,0.5,0.4,0.8,0.5c3,1.2,4.9,4.1,4.9,7.3c-0.1,0.5,0,1,0.1,1.5
	c0.3,0.5,0.7,0.9,1.1,1.2c2.1,1.7,3.4,4.3,3.4,7.1c0,1.8-0.8,3.8-2.4,4.6c-3.3,1.7-6.9,2.4-10.6,3.1c-3.4,0.8-6.8,1.4-10.2,1.8
	c-3.2,0.3-6.4,0.4-9.6,0.3l-21-0.1c-5.9,0-11.8,0-17.7-0.4c-5.5-0.4-11.1-1.1-16.5,0.4c-0.7-1.1,0.4-2.4,1.1-3.6
	c0.7-1.5,1.2-3.2,1.2-4.9l1.3-14c0.3-1.9,0.3-3.9,0.1-5.9c-0.3-2.1-1.1-4-1.5-6.1c-0.8-3.9-0.1-8-0.2-12c-0.3-3.5-0.9-7-1.8-10.4
	l-4.1-17.1c-0.7-2.8-1-5.9-2-8.6c-3.2-8.2-6.6-16.4-10.1-24.5c-0.3-0.7-0.2-1.5,0.2-2.2l3.5-6.2c0.9-1.8,2-3.5,3.2-5.1
	c2.9-3.7,7.1-6.3,11.7-7.2c4.6-0.9,9.5-0.2,13.7,2c1.6,0.9,3.1,2,4.8,2.8C221,404.4,224.4,405.9,227.5,405.7z"/>
<path class="st13" d="M283.3,420.9l5.5,7.3c0.5,0.6,0.9,1.3,1.3,2c0.8,2,0.4,4.2,0.8,6.2c0.3,1.3,0.9,2.6,1.6,3.7
	c2.1,3.6,4.4,7.1,7,10.4c1.2,1.7,2.7,3.1,4.3,4.3c1.7,1.2,3.8,1.6,5.9,1c-0.8,0.3-1.5,0.9-2,1.7c-2.1,4.1-2.2,9-1.4,13.6
	c0.3,1.6,0.8,3.1,1.5,4.4c0.8,1.4,2,2.5,3.5,3c-0.4,2.8-3,4.8-5.8,4.4c-0.1,0-0.2,0-0.2,0c-1.1-0.3-2.1-0.8-3-1.5l-8.8-5.7
	c-1.5-0.9-2.8-1.9-4.1-3.1c-1.6-1.6-2.8-3.7-4.4-5.4c-2.7-2.9-6.7-4.6-8.7-8.1c-1.2-2.2-1.4-4.7-2.2-7.1c-0.5-1.6-1.2-3-1.7-4.6
	c-1.4-4.8-0.4-10.1,1.8-14.6S280.1,424.8,283.3,420.9z"/>
<path class="st12" d="M262.7,354.2c-2.1-3.3-4.9-6.2-8.2-8.5c-4.3-3.2-9.3-5.9-14.7-6.2c-2.3-0.1-4.5,0.3-6.6,1.1
	c-0.1-6.5-1.7-10.9-5.8-10.2c-7.6,1.2-16.1,4.2-19,11.3c-2.2,5.4-0.5,11.5,0.1,17.3c0.2,1.5,0.2,3.1-0.2,4.6c-0.6,2.4-2.4,4.4-4,6.3
	c-2.3,2.4-4.3,5.1-5.8,8.1c-1.4,3.1-1.8,6.7-0.4,9.8c0.5,0.8,0.8,1.6,1,2.6c0.1,2-2,3.2-3.5,4.5c-5.7,4.7-5.5,13.4-5.5,20.8
	c-0.1,15.2-3.5,30.2-9.9,43.9c4.9,2.5,10.9,1.7,15-2c-0.8,3.4-1.9,6.7-3.4,9.8c4.9,2.3,10.7-1.5,13.1-6.3c2.4-4.8,2.7-10.4,4.4-15.5
	c1.7-5.1,4.8-9.5,6.1-14.6c0.4-1.7,0.7-3.5,1.7-4.9c0.9-1,1.9-1.9,3-2.6c5-3.6-2.4-30.7-0.4-36.5c2.9,0.6,8.2-13.4,11.3-27.6
	c2.1,0.7,4.4,1,6.6,0.7c0.8-0.2,1.6-0.2,2.4-0.2c0.7,0.2,1.4,0.4,2.1,0.8c2.2,1.4,4.6,2.6,7,3.6c5,1.9,10.6,1.6,15.9,1.4
	C265.6,361.6,264.8,357.5,262.7,354.2z"/>
<g class="st16">
	<path d="M182.8,459.4c6.4-13.7,9.8-28.7,9.9-43.9c0-7.4-0.2-16.1,5.5-20.8c1.5-1.3,3.6-2.5,3.5-4.5c-0.2-0.9-0.5-1.8-1-2.6
		c-1.4-3-1-6.7,0.4-9.8c1.5-3,3.5-5.7,5.8-8.1c1.7-1.9,3.4-3.9,4-6.3c0.3-1.5,0.4-3.1,0.2-4.6c-0.6-5.9-2.3-11.9-0.1-17.3
		c2.8-6.9,10.8-9.9,18.3-11.2c-0.6-0.2-1.3-0.3-2-0.1c-7.6,1.2-16.1,4.2-19,11.3c-2.2,5.4-0.5,11.5,0.1,17.3
		c0.2,1.5,0.2,3.1-0.2,4.6c-0.6,2.4-2.4,4.4-4,6.3c-2.3,2.4-4.3,5.1-5.8,8.1c-1.4,3.1-1.8,6.7-0.4,9.8c0.5,0.8,0.8,1.6,1,2.6
		c0.1,2-2,3.2-3.5,4.5c-5.7,4.7-5.5,13.4-5.5,20.8c-0.1,15.2-3.5,30.2-9.9,43.9c2.3,1.2,4.8,1.6,7.4,1.4
		C185.8,460.6,184.2,460.2,182.8,459.4z"/>
	<path d="M194.4,467.3c1.5-3.2,2.6-6.4,3.4-9.8c-1,0.9-2.1,1.6-3.3,2.2c-0.7,2.6-1.7,5.2-2.8,7.6c1.4,0.7,3,0.9,4.5,0.6
		C195.5,467.7,195,467.5,194.4,467.3z"/>
	<path d="M235.9,340.5c1.4-0.6,2.9-0.9,4.4-1l-0.5,0c-1.3-0.1-2.6,0-3.9,0.3C235.9,340,235.9,340.3,235.9,340.5z"/>
	<path d="M251.7,364.1c-2.4-1-4.8-2.2-7-3.6c-0.6-0.4-1.3-0.7-2.1-0.8c-0.7-0.1-1.4,0-2.2,0.1c0.5,0.2,1,0.4,1.5,0.7
		c2.2,1.4,4.6,2.6,7,3.6c3.8,1.2,7.8,1.8,11.8,1.5C257.7,365.7,254.6,365.1,251.7,364.1z"/>
	<path d="M233.7,359.2c0,0.2-0.1,0.4-0.1,0.6c1.1,0.2,2.3,0.2,3.4,0.1C235.9,359.8,234.8,359.6,233.7,359.2z"/>
</g>
<path class="st7" d="M185.4,466.7c0.3,2.5-0.6,5-2.3,6.8c-1,0.9-2,1.7-3.2,2.4c-1.1,0.8-2.5,1.3-3.8,1.4c-1.8-0.1-3.6-0.8-4.9-2.1
	c-4-3.5-6-8.8-7.9-13.8c-2.5-6.7-4.9-13.4-6-20.4c-1.1-7.5-0.7-15.4-2.8-22.7c2-3.8,3.1-8.1,5.3-11.8c1.4-2.2,2.6-4.5,3.7-6.9
	c2-5.1,2.2-10.7,0.6-15.8c0.8-0.5,1.8-0.5,2.5,0.1c0.7,0.6,1.2,1.4,1.5,2.2c1.3,2.9,1.8,6.1,1.5,9.3c-0.1,0.8-0.1,1.6,0.3,2.3
	c0.6,0.7,1.5,1.1,2.5,1c1.9-0.1,3.9-0.4,5.7-1c5.8-1.5,11.7-2,17.6-1.5c1.2,0,2.4,0.3,3.4,0.8c1.1,0.5,1.8,1.7,1.8,2.9l-14.1,2.1
	c-1,0.1-2.1,0.4-2.9,1c-0.9,0.6-1.1,1.8-0.5,2.7c0,0,0,0,0.1,0.1c0.3,0.2,0.6,0.5,1,0.7c1.3,1,1.4,2.9,0.4,4.1
	c-0.2,0.2-0.3,0.4-0.5,0.5c-0.4,0.2-0.7,0.4-1,0.7c-0.6,0.8,0.2,1.8,0.4,2.7c0.2,1.4-0.5,2.8-1.7,3.5c-1.2,0.7-2.5,1.1-3.9,1.3
	c-2.8,0.6-5.5,1.6-8,2.7c-0.8,0.3-1.6,0.8-2.1,1.6c-0.7,1.2-0.2,2.7,0.2,4l3.7,9.9c0.6,1.6,1.2,3.1,1.9,4.6c1,2,2.1,3.8,3,5.7
	c0.9,1.8,1.6,3.7,2.3,5.5C181.1,458.3,184.8,461.3,185.4,466.7z"/>
<path class="st7" d="M348.4,400.1c-0.8,0.6-1.3,1.4-1.6,2.4c-0.1,0.4,0,0.8,0.4,1.1c0.2,0.1,0.4,0.1,0.7,0c1-0.2,2-0.7,2.8-1.3
	c-0.3,0.2-0.6,0.4-0.8,0.7c-0.2,0.3-0.3,0.7-0.1,1c0.2,0.3,0.6,0.5,0.9,0.5c1.4,0.2,2.8,0.2,4.1-0.2c-0.6,0.2-1.2,0.5-1.7,1
	c-0.5,0.4-0.8,1.1-0.8,1.8c0,0.3,0.1,0.5,0.3,0.7c0.1,0.1,0.3,0.1,0.4,0.2c1.3,0.2,2.5,0.2,3.8,0c0.7,0,1.3-0.4,1.6-1
	c0.1-0.6,0-1.3-0.4-1.8c-0.7-1.4-1-3-1-4.6c0-0.3,0-0.7-0.1-1c-0.2-0.3-0.5-0.5-0.8-0.6c-1.3-0.6-3.2-1.4-4.7-0.9
	C350.2,398.3,349.2,399.1,348.4,400.1z"/>
<path class="st1" d="M379.3,368.9L332.7,394c-0.5,0.3-0.6,0.9-0.4,1.3c0.1,0.2,0.3,0.3,0.4,0.4l7.9,3c0.5,0.2,0.8,0.5,1,1l6.2,12.7
	c0.1,0.6,1.2,0.7,1.2,0.1l-1-10.5c0.1-0.8,0.4-1.5,0.8-2.1l24.1-23.6c0.1-0.1,0.3-0.2,0.5-0.2c0.3,0.1,0.5,0.4,0.4,0.7
	c0,0.1-0.1,0.2-0.1,0.2l-20.8,25.5c-0.4,0.6-0.7,1.3-0.8,2.1l-1.2,9.1c0.1,0.8,0.7,1.1,1.2,0.4l4.5-5.3c0.3-0.4,0.9-0.5,1.3-0.2
	l11.6,8.4c0.5,0.3,1.1,0.2,1.3-0.3c0.1-0.1,0.1-0.2,0.1-0.3l9.5-46.5c0.1-0.5-0.3-1-0.8-1.1C379.7,368.7,379.5,368.8,379.3,368.9
	L379.3,368.9z"/>
<ellipse class="st17" cx="908.4" cy="793.6" rx="58" ry="11.2"/>
<ellipse class="st9" cx="907.4" cy="788.9" rx="6.7" ry="8.8"/>
<ellipse class="st9" cx="907.4" cy="778.1" rx="6.7" ry="8.8"/>
<ellipse class="st9" cx="907.4" cy="767.3" rx="6.7" ry="8.8"/>
<ellipse class="st9" cx="907.4" cy="756.5" rx="6.7" ry="8.8"/>
<ellipse class="st9" cx="907.4" cy="745.7" rx="6.7" ry="8.8"/>
<ellipse class="st9" cx="907.4" cy="734.9" rx="6.7" ry="8.8"/>
<ellipse class="st9" cx="907.4" cy="724.1" rx="6.7" ry="8.8"/>
<path class="st18" d="M932.7,650.1c0.9-1.2,1.8-2.4,2.5-3.7l-17.8-2.9l19.2,0.1c3.7-8.1,3.9-17.4,0.6-25.6l-25.7,13.4l23.7-17.4
	c-8.9-15.5-28.7-20.8-44.2-11.9c-15.5,8.9-20.8,28.7-11.9,44.2c0.8,1.4,1.7,2.6,2.6,3.9c-1.4,1.8-2.7,3.8-3.7,5.9l23,12l-24.6-8.2
	c-3.5,10.4-1.5,21.8,5.2,30.4c-11,14-8.6,34.4,5.4,45.4c14,11,34.4,8.6,45.4-5.4c9.2-11.7,9.2-28.2,0-40
	C941.9,678.3,941.9,661.8,932.7,650.1L932.7,650.1z"/>
<path class="st17" d="M875,670.1c0,7.3,2.4,14.3,6.9,20c-11,14-8.6,34.4,5.4,45.4s34.4,8.6,45.4-5.4c9.2-11.7,9.2-28.2,0-40
	C937.1,684.6,875,666.5,875,670.1z"/>
<ellipse class="st17" cx="363.1" cy="763.8" rx="33.1" ry="6.4"/>
<ellipse class="st9" cx="363.7" cy="761.1" rx="3.9" ry="5"/>
<ellipse class="st9" cx="363.7" cy="754.9" rx="3.9" ry="5"/>
<ellipse class="st9" cx="363.7" cy="748.7" rx="3.9" ry="5"/>
<ellipse class="st9" cx="363.7" cy="742.6" rx="3.9" ry="5"/>
<ellipse class="st9" cx="363.7" cy="736.4" rx="3.9" ry="5"/>
<ellipse class="st9" cx="363.7" cy="730.2" rx="3.9" ry="5"/>
<ellipse class="st9" cx="363.7" cy="724.1" rx="3.9" ry="5"/>
<path class="st18" d="M349.3,681.8c-0.5-0.7-1-1.4-1.4-2.1l10.1-1.7l-11,0.1c-2.1-4.6-2.2-9.9-0.4-14.6l14.7,7.6l-13.6-10
	c5.1-8.9,16.4-11.9,25.2-6.8c8.9,5.1,11.9,16.4,6.8,25.2c-0.5,0.8-1,1.6-1.6,2.3c0.8,1,1.5,2.2,2.1,3.4l-13.1,6.8l14-4.7
	c0.6,1.9,1,3.9,1,5.9c0,4.1-1.4,8.2-4,11.4c6.3,8,4.9,19.6-3.1,25.9c-8,6.3-19.6,4.9-25.9-3.1c-5.3-6.7-5.3-16.1,0-22.8
	C344,698,344,688.6,349.3,681.8L349.3,681.8z"/>
<path class="st17" d="M382.3,693.3c0,4.1-1.4,8.2-4,11.4c6.3,8,4.9,19.6-3.1,25.9c-8,6.3-19.6,4.9-25.9-3.1
	c-5.3-6.7-5.3-16.1,0-22.8C346.8,701.5,382.3,691.2,382.3,693.3z"/>
<ellipse class="st17" cx="116.5" cy="712.5" rx="22.3" ry="4.3"/>
<ellipse class="st9" cx="116.9" cy="710.7" rx="2.6" ry="3.4"/>
<ellipse class="st9" cx="116.9" cy="706.6" rx="2.6" ry="3.4"/>
<ellipse class="st9" cx="116.9" cy="702.4" rx="2.6" ry="3.4"/>
<ellipse class="st9" cx="116.9" cy="698.3" rx="2.6" ry="3.4"/>
<ellipse class="st9" cx="116.9" cy="694.1" rx="2.6" ry="3.4"/>
<ellipse class="st9" cx="116.9" cy="690" rx="2.6" ry="3.4"/>
<ellipse class="st9" cx="116.9" cy="685.9" rx="2.6" ry="3.4"/>
<path class="st18" d="M107.2,657.5c-0.4-0.4-0.7-0.9-1-1.4l6.8-1.1h-7.4c-1.4-3.1-1.5-6.7-0.2-9.8l9.9,5.2l-9.1-6.7
	c3.4-6,11-8.1,16.9-4.7c6,3.4,8.1,11,4.7,16.9c-0.3,0.6-0.7,1.1-1.1,1.6c0.6,0.7,1,1.5,1.4,2.3l-8.8,4.6l9.4-3.2
	c0.4,1.3,0.7,2.6,0.7,4c0,2.8-0.9,5.5-2.7,7.7c4.3,5.4,3.3,13.2-2.1,17.5c-5.4,4.3-13.2,3.3-17.5-2.1c-3.6-4.5-3.6-10.9,0-15.4
	C103.6,668.3,103.6,662,107.2,657.5L107.2,657.5z"/>
<path class="st17" d="M129.3,665.1c0,2.8-0.9,5.5-2.7,7.7c4.3,5.4,3.3,13.2-2.1,17.5c-5.4,4.3-13.2,3.3-17.5-2.1
	c-3.6-4.5-3.6-10.9,0-15.4C105.5,670.7,129.3,663.8,129.3,665.1z"/>
</svg>
